<svg id="Lag_1" data-name="Lag 1" xmlns="http://www.w3.org/2000/svg" xmlns:xlink="http://www.w3.org/1999/xlink" viewBox="0 0 841.89 595.28"><defs><style>.cls-1{fill:#101a4c;}.cls-2{opacity:0.1;}.cls-3{fill:#fff;}.cls-4{fill:url(#linear-gradient);}.cls-5{fill:#f5b90a;}.cls-6{fill:url(#linear-gradient-2);}.cls-7{fill:url(#linear-gradient-3);}.cls-8{fill:url(#linear-gradient-4);}.cls-9{fill:url(#linear-gradient-5);}.cls-10{fill:url(#linear-gradient-6);}.cls-11{fill:url(#linear-gradient-7);}.cls-12{fill:url(#linear-gradient-8);}.cls-13{fill:url(#linear-gradient-9);}.cls-14{fill:url(#linear-gradient-10);}.cls-15{fill:url(#linear-gradient-11);}.cls-16{fill:url(#linear-gradient-12);}.cls-17{fill:url(#linear-gradient-13);}.cls-18{fill:url(#linear-gradient-14);}.cls-19{fill:url(#linear-gradient-15);}.cls-20{fill:url(#linear-gradient-16);}.cls-21{fill:url(#linear-gradient-17);}.cls-22{fill:url(#linear-gradient-18);}.cls-23{fill:url(#linear-gradient-19);}.cls-24{fill:url(#linear-gradient-20);}.cls-25{fill:url(#linear-gradient-21);}.cls-26{fill:url(#linear-gradient-22);}.cls-27{fill:url(#linear-gradient-23);}.cls-28{fill:url(#linear-gradient-24);}.cls-29{fill:url(#linear-gradient-25);}.cls-30{fill:url(#linear-gradient-26);}.cls-31{fill:url(#linear-gradient-27);}.cls-32{fill:url(#linear-gradient-28);}.cls-33{fill:url(#linear-gradient-29);}.cls-34{fill:url(#linear-gradient-30);}.cls-35{fill:url(#linear-gradient-31);}.cls-36{fill:url(#linear-gradient-32);}.cls-37{fill:url(#linear-gradient-33);}.cls-38{fill:url(#linear-gradient-34);}.cls-39{fill:url(#linear-gradient-35);}.cls-40{fill:url(#linear-gradient-36);}.cls-41{fill:url(#linear-gradient-37);}.cls-42{fill:url(#linear-gradient-38);}.cls-43{fill:url(#linear-gradient-39);}.cls-44{fill:url(#linear-gradient-40);}.cls-45{fill:url(#linear-gradient-41);}.cls-46{fill:url(#linear-gradient-42);}.cls-47{fill:url(#linear-gradient-43);}.cls-48{fill:url(#linear-gradient-44);}.cls-49{fill:url(#linear-gradient-45);}.cls-50{fill:url(#linear-gradient-46);}.cls-51{fill:url(#linear-gradient-47);}.cls-52{fill:url(#linear-gradient-48);}.cls-53{fill:url(#linear-gradient-49);}.cls-54{fill:url(#linear-gradient-50);}.cls-55{fill:url(#linear-gradient-51);}.cls-56{fill:url(#linear-gradient-52);}.cls-57{fill:url(#linear-gradient-53);}.cls-58{fill:url(#linear-gradient-54);}.cls-59{fill:url(#linear-gradient-55);}.cls-60{fill:url(#linear-gradient-56);}.cls-61{fill:url(#linear-gradient-57);}.cls-62{fill:url(#linear-gradient-58);}.cls-63{fill:url(#linear-gradient-59);}.cls-64{fill:url(#linear-gradient-60);}.cls-65{fill:url(#linear-gradient-61);}.cls-66{fill:url(#linear-gradient-62);}.cls-67{fill:url(#linear-gradient-63);}.cls-68{fill:url(#linear-gradient-64);}.cls-69{fill:url(#linear-gradient-65);}.cls-70{fill:url(#linear-gradient-66);}.cls-71{fill:url(#linear-gradient-67);}.cls-72{fill:url(#linear-gradient-68);}.cls-73{fill:url(#linear-gradient-69);}.cls-74{fill:url(#linear-gradient-70);}.cls-75{fill:url(#linear-gradient-71);}.cls-76{fill:url(#linear-gradient-72);}.cls-77{fill:url(#linear-gradient-73);}.cls-78{fill:url(#linear-gradient-74);}.cls-79{fill:url(#linear-gradient-75);}.cls-80{fill:url(#linear-gradient-76);}.cls-81{fill:url(#linear-gradient-77);}.cls-82{fill:url(#linear-gradient-78);}.cls-83{fill:url(#linear-gradient-79);}.cls-84{fill:url(#linear-gradient-80);}.cls-85{fill:url(#linear-gradient-81);}.cls-86{fill:url(#linear-gradient-82);}.cls-87{fill:url(#linear-gradient-83);}.cls-88{fill:url(#linear-gradient-84);}.cls-89{fill:url(#linear-gradient-85);}.cls-90{fill:url(#linear-gradient-86);}.cls-91{fill:url(#linear-gradient-87);}.cls-92{fill:url(#linear-gradient-88);}.cls-93{fill:url(#linear-gradient-89);}.cls-94{fill:url(#linear-gradient-90);}.cls-95{fill:url(#linear-gradient-91);}.cls-96{fill:url(#linear-gradient-92);}.cls-97{fill:url(#linear-gradient-93);}.cls-98{fill:url(#linear-gradient-94);}.cls-99{fill:url(#linear-gradient-95);}.cls-100{fill:url(#linear-gradient-96);}.cls-101{fill:url(#linear-gradient-97);}</style><linearGradient id="linear-gradient" x1="691.44" y1="608.85" x2="1022.66" y2="277.64" gradientUnits="userSpaceOnUse"><stop offset="0" stop-color="#be2d7d"/><stop offset="1" stop-color="#f5b90a"/></linearGradient><linearGradient id="linear-gradient-2" x1="-105.1" y1="303.13" x2="205.56" y2="-7.53" gradientUnits="userSpaceOnUse"><stop offset="0" stop-color="#285aa5"/><stop offset="1" stop-color="#be2d7d"/></linearGradient><linearGradient id="linear-gradient-3" x1="154.25" y1="753.44" x2="935.79" y2="206.2" gradientTransform="translate(1120.19 409.53) rotate(115.19)" gradientUnits="userSpaceOnUse"><stop offset="0" stop-color="#285aa5"/><stop offset="0.5" stop-color="#be2d7d"/><stop offset="1" stop-color="#f5b90a"/></linearGradient><linearGradient id="linear-gradient-4" x1="153.41" y1="754.03" x2="937.32" y2="205.13" gradientTransform="translate(580.87 1250.34) rotate(-154.81)" xlink:href="#linear-gradient-3"/><linearGradient id="linear-gradient-5" x1="111.07" y1="691.62" x2="892.62" y2="144.38" gradientTransform="translate(1011.1 340.29) rotate(115.19)" xlink:href="#linear-gradient-3"/><linearGradient id="linear-gradient-6" x1="110.21" y1="692.23" x2="894.11" y2="143.33" gradientTransform="translate(548.29 1104.57) rotate(-154.81)" xlink:href="#linear-gradient-3"/><linearGradient id="linear-gradient-7" x1="120.89" y1="705.68" x2="902.44" y2="158.43" gradientTransform="translate(1006.52 426.62) rotate(115.19)" xlink:href="#linear-gradient-3"/><linearGradient id="linear-gradient-8" x1="120.15" y1="706.2" x2="904.05" y2="157.3" gradientTransform="translate(473.98 1171.4) rotate(-154.81)" xlink:href="#linear-gradient-3"/><linearGradient id="linear-gradient-9" x1="117.61" y1="700.98" x2="899.16" y2="153.73" gradientTransform="translate(976.08 474.57) rotate(115.19)" xlink:href="#linear-gradient-3"/><linearGradient id="linear-gradient-10" x1="116.95" y1="701.44" x2="900.85" y2="152.55" gradientTransform="translate(409.92 1185.71) rotate(-154.81)" xlink:href="#linear-gradient-3"/><linearGradient id="linear-gradient-11" x1="94.93" y1="668.52" x2="876.48" y2="121.28" gradientTransform="translate(1056.51 107.34) rotate(115.19)" xlink:href="#linear-gradient-3"/><linearGradient id="linear-gradient-12" x1="93.73" y1="669.37" x2="877.63" y2="120.47" gradientTransform="translate(775.82 951.28) rotate(-154.81)" xlink:href="#linear-gradient-3"/><linearGradient id="linear-gradient-13" x1="75.05" y1="640.05" x2="856.59" y2="92.8" gradientTransform="translate(982.54 132.44) rotate(115.19)" xlink:href="#linear-gradient-3"/><linearGradient id="linear-gradient-14" x1="73.92" y1="640.84" x2="857.82" y2="91.94" gradientTransform="translate(694.84 911.34) rotate(-154.81)" xlink:href="#linear-gradient-3"/><linearGradient id="linear-gradient-15" x1="147.2" y1="743.36" x2="928.75" y2="196.12" gradientTransform="translate(1168.94 238.34) rotate(115.19)" xlink:href="#linear-gradient-3"/><linearGradient id="linear-gradient-16" x1="146.11" y1="744.13" x2="930.01" y2="195.23" gradientTransform="translate(760.63 1150.26) rotate(-154.81)" xlink:href="#linear-gradient-3"/><linearGradient id="linear-gradient-17" x1="111.09" y1="691.61" x2="892.59" y2="144.4" gradientTransform="matrix(1, 0, 0, 1, 0, 0)" xlink:href="#linear-gradient-3"/><linearGradient id="linear-gradient-18" x1="111.15" y1="691.57" x2="892.49" y2="144.47" gradientTransform="matrix(1, 0, 0, 1, 0, 0)" xlink:href="#linear-gradient-3"/><linearGradient id="linear-gradient-19" x1="95.5" y1="669.31" x2="877.05" y2="122.07" gradientTransform="translate(866.6 567.94) rotate(115.19)" xlink:href="#linear-gradient-3"/><linearGradient id="linear-gradient-20" x1="95.03" y1="669.65" x2="878.93" y2="120.75" gradientTransform="translate(244.11 1172.54) rotate(-154.81)" xlink:href="#linear-gradient-3"/><linearGradient id="linear-gradient-21" x1="95.51" y1="669.31" x2="877.02" y2="122.09" gradientTransform="matrix(1, 0, 0, 1, 0, 0)" xlink:href="#linear-gradient-3"/><linearGradient id="linear-gradient-22" x1="5.63" y1="540.65" x2="787.18" y2="-6.59" gradientTransform="translate(824.07 -19.61) rotate(115.19)" xlink:href="#linear-gradient-3"/><linearGradient id="linear-gradient-23" x1="4.38" y1="541.52" x2="788.29" y2="-7.37" gradientTransform="translate(689.59 657.54) rotate(-154.81)" xlink:href="#linear-gradient-3"/><linearGradient id="linear-gradient-24" x1="5.65" y1="540.64" x2="787.16" y2="-6.58" gradientTransform="matrix(1, 0, 0, 1, 0, 0)" xlink:href="#linear-gradient-3"/><linearGradient id="linear-gradient-25" x1="5.74" y1="540.58" x2="787.08" y2="-6.52" gradientTransform="matrix(1, 0, 0, 1, 0, 0)" xlink:href="#linear-gradient-3"/><linearGradient id="linear-gradient-26" x1="37.19" y1="585.81" x2="818.74" y2="38.56" gradientTransform="translate(666.57 600.96) rotate(115.19)" xlink:href="#linear-gradient-3"/><linearGradient id="linear-gradient-27" x1="36.87" y1="586.03" x2="820.78" y2="37.13" gradientTransform="translate(53.63 1036.03) rotate(-154.81)" xlink:href="#linear-gradient-3"/><linearGradient id="linear-gradient-28" x1="37.2" y1="585.8" x2="818.7" y2="38.59" gradientTransform="matrix(1, 0, 0, 1, 0, 0)" xlink:href="#linear-gradient-3"/><linearGradient id="linear-gradient-29" x1="37.22" y1="585.79" x2="818.56" y2="38.69" gradientTransform="matrix(1, 0, 0, 1, 0, 0)" xlink:href="#linear-gradient-3"/><linearGradient id="linear-gradient-30" x1="74.79" y1="639.68" x2="856.34" y2="92.44" gradientTransform="translate(945.8 218.73) rotate(115.19)" xlink:href="#linear-gradient-3"/><linearGradient id="linear-gradient-31" x1="73.8" y1="640.37" x2="857.71" y2="91.48" gradientTransform="translate(594.28 951.85) rotate(-154.81)" xlink:href="#linear-gradient-3"/><linearGradient id="linear-gradient-32" x1="68.62" y1="630.83" x2="850.17" y2="83.59" gradientTransform="translate(888.5 309.01) rotate(115.19)" xlink:href="#linear-gradient-3"/><linearGradient id="linear-gradient-33" x1="67.78" y1="631.42" x2="851.69" y2="82.52" gradientTransform="translate(473.65 978.8) rotate(-154.81)" xlink:href="#linear-gradient-3"/><linearGradient id="linear-gradient-34" x1="31.99" y1="578.36" x2="813.54" y2="31.11" gradientTransform="translate(617.36 679.28) rotate(115.19)" xlink:href="#linear-gradient-3"/><linearGradient id="linear-gradient-35" x1="31.81" y1="578.49" x2="815.71" y2="29.59" gradientTransform="translate(-50.62 1059.82) rotate(-154.81)" xlink:href="#linear-gradient-3"/><linearGradient id="linear-gradient-36" x1="74.81" y1="639.67" x2="856.32" y2="92.45" gradientTransform="matrix(1, 0, 0, 1, 0, 0)" xlink:href="#linear-gradient-3"/><linearGradient id="linear-gradient-37" x1="-33.04" y1="485.27" x2="748.51" y2="-61.98" gradientTransform="translate(-151.98 376.21) rotate(-64.81)" xlink:href="#linear-gradient-3"/><linearGradient id="linear-gradient-38" x1="-33.8" y1="485.8" x2="750.11" y2="-63.09" gradientTransform="translate(151.99 -64.52) rotate(25.19)" xlink:href="#linear-gradient-3"/><linearGradient id="linear-gradient-39" x1="-26.86" y1="494.11" x2="754.68" y2="-53.13" gradientTransform="translate(-94.68 412.59) rotate(-64.81)" xlink:href="#linear-gradient-3"/><linearGradient id="linear-gradient-40" x1="-27.78" y1="494.76" x2="756.13" y2="-54.14" gradientTransform="translate(145.96 -91.48) rotate(25.19)" xlink:href="#linear-gradient-3"/><linearGradient id="linear-gradient-41" x1="13.85" y1="552.4" x2="795.39" y2="5.16" gradientTransform="translate(-136.12 477.88) rotate(-64.81)" xlink:href="#linear-gradient-3"/><linearGradient id="linear-gradient-42" x1="12.96" y1="553.03" x2="796.86" y2="4.13" gradientTransform="translate(176.67 -98.34) rotate(25.19)" xlink:href="#linear-gradient-3"/><linearGradient id="linear-gradient-43" x1="-33.02" y1="485.26" x2="748.48" y2="-61.96" gradientTransform="matrix(1, 0, 0, 1, 0, 0)" xlink:href="#linear-gradient-3"/><linearGradient id="linear-gradient-44" x1="-12.79" y1="514.23" x2="768.72" y2="-32.98" gradientTransform="matrix(1, 0, 0, 1, 0, 0)" xlink:href="#linear-gradient-3"/><linearGradient id="linear-gradient-45" x1="-194.37" y1="254.25" x2="587.18" y2="-293" gradientTransform="translate(-16.23 105.6) rotate(-64.81)" xlink:href="#linear-gradient-3"/><linearGradient id="linear-gradient-46" x1="-195.18" y1="254.82" x2="588.72" y2="-294.08" gradientTransform="translate(35.06 -25.71) rotate(25.19)" xlink:href="#linear-gradient-3"/><linearGradient id="linear-gradient-47" x1="-133.32" y1="341.67" x2="648.23" y2="-205.57" gradientTransform="translate(-45.77 217.09) rotate(-64.81)" xlink:href="#linear-gradient-3"/><linearGradient id="linear-gradient-48" x1="-134.17" y1="342.26" x2="649.74" y2="-206.63" gradientTransform="translate(75.64 -49.29) rotate(25.19)" xlink:href="#linear-gradient-3"/><linearGradient id="linear-gradient-49" x1="-130.98" y1="344.99" x2="650.52" y2="-202.23" gradientTransform="matrix(1, 0, 0, 1, 0, 0)" xlink:href="#linear-gradient-3"/><linearGradient id="linear-gradient-50" x1="17.28" y1="561.64" x2="801.18" y2="12.74" gradientTransform="translate(1263.08 471.52) rotate(-154.81)" xlink:href="#linear-gradient-3"/><linearGradient id="linear-gradient-51" x1="19.29" y1="560.23" x2="800.83" y2="12.99" gradientTransform="translate(307.34 673.5) rotate(-64.81)" xlink:href="#linear-gradient-3"/><linearGradient id="linear-gradient-52" x1="9.83" y1="551.56" x2="793.74" y2="2.67" gradientTransform="translate(1450.22 367.92) rotate(-154.81)" xlink:href="#linear-gradient-3"/><linearGradient id="linear-gradient-53" x1="12.11" y1="549.97" x2="793.66" y2="2.72" gradientTransform="translate(420.23 705.94) rotate(-64.81)" xlink:href="#linear-gradient-3"/><linearGradient id="linear-gradient-54" x1="19.32" y1="560.21" x2="800.83" y2="12.99" gradientTransform="matrix(1, 0, 0, 1, 0, 0)" xlink:href="#linear-gradient-3"/><linearGradient id="linear-gradient-55" x1="78.22" y1="648.32" x2="862.13" y2="99.42" gradientTransform="translate(1144.22 744.21) rotate(-154.81)" xlink:href="#linear-gradient-3"/><linearGradient id="linear-gradient-56" x1="79.96" y1="647.1" x2="861.5" y2="99.86" gradientTransform="translate(155.32 733.24) rotate(-64.81)" xlink:href="#linear-gradient-3"/><linearGradient id="linear-gradient-57" x1="79.99" y1="647.08" x2="861.49" y2="99.86" gradientTransform="matrix(1, 0, 0, 1, 0, 0)" xlink:href="#linear-gradient-3"/><linearGradient id="linear-gradient-58" x1="130.55" y1="723.09" x2="914.45" y2="174.2" gradientTransform="translate(1160.6 930.15) rotate(-154.81)" xlink:href="#linear-gradient-3"/><linearGradient id="linear-gradient-59" x1="132.22" y1="721.93" x2="913.76" y2="174.68" gradientTransform="translate(89.48 811.79) rotate(-64.81)" xlink:href="#linear-gradient-3"/><linearGradient id="linear-gradient-60" x1="132.25" y1="721.91" x2="913.75" y2="174.69" gradientTransform="matrix(1, 0, 0, 1, 0, 0)" xlink:href="#linear-gradient-3"/><linearGradient id="linear-gradient-61" x1="132.25" y1="721.91" x2="913.75" y2="174.7" gradientTransform="matrix(1, 0, 0, 1, 0, 0)" xlink:href="#linear-gradient-3"/><linearGradient id="linear-gradient-62" x1="161.5" y1="767.37" x2="945.41" y2="218.47" gradientTransform="translate(1184.39 1034.4) rotate(-154.81)" xlink:href="#linear-gradient-3"/><linearGradient id="linear-gradient-63" x1="163.15" y1="766.22" x2="944.69" y2="218.98" gradientTransform="translate(58.24 861.51) rotate(-64.81)" xlink:href="#linear-gradient-3"/><linearGradient id="linear-gradient-64" x1="-75.49" y1="424.49" x2="706.05" y2="-122.75" gradientTransform="translate(601.47 -107.38) rotate(115.19)" xlink:href="#linear-gradient-3"/><linearGradient id="linear-gradient-65" x1="-76.73" y1="425.36" x2="707.18" y2="-123.54" gradientTransform="translate(579.38 403.85) rotate(-154.81)" xlink:href="#linear-gradient-3"/><linearGradient id="linear-gradient-66" x1="-65.67" y1="438.54" x2="715.87" y2="-108.7" gradientTransform="translate(596.89 -21.04) rotate(115.19)" xlink:href="#linear-gradient-3"/><linearGradient id="linear-gradient-67" x1="-66.79" y1="439.33" x2="717.11" y2="-109.57" gradientTransform="translate(505.08 470.68) rotate(-154.81)" xlink:href="#linear-gradient-3"/><linearGradient id="linear-gradient-68" x1="-68.95" y1="433.85" x2="712.59" y2="-113.4" gradientTransform="translate(566.46 26.91) rotate(115.19)" xlink:href="#linear-gradient-3"/><linearGradient id="linear-gradient-69" x1="-69.99" y1="434.57" x2="713.92" y2="-114.32" gradientTransform="translate(441.01 484.99) rotate(-154.81)" xlink:href="#linear-gradient-3"/><linearGradient id="linear-gradient-70" x1="-75.47" y1="424.48" x2="706.04" y2="-122.74" gradientTransform="matrix(1, 0, 0, 1, 0, 0)" xlink:href="#linear-gradient-3"/><linearGradient id="linear-gradient-71" x1="-75.38" y1="424.42" x2="705.96" y2="-122.68" gradientTransform="matrix(1, 0, 0, 1, 0, 0)" xlink:href="#linear-gradient-3"/><linearGradient id="linear-gradient-72" x1="-109.69" y1="375.52" x2="671.85" y2="-171.72" gradientTransform="translate(541.42 -225.61) rotate(115.19)" xlink:href="#linear-gradient-3"/><linearGradient id="linear-gradient-73" x1="-111.06" y1="376.48" x2="672.85" y2="-172.42" gradientTransform="translate(626.94 258.14) rotate(-154.81)" xlink:href="#linear-gradient-3"/><linearGradient id="linear-gradient-74" x1="-115.87" y1="366.67" x2="665.68" y2="-180.57" gradientTransform="translate(484.12 -135.32) rotate(115.19)" xlink:href="#linear-gradient-3"/><linearGradient id="linear-gradient-75" x1="-117.08" y1="367.52" x2="666.83" y2="-181.38" gradientTransform="translate(506.31 285.09) rotate(-154.81)" xlink:href="#linear-gradient-3"/><linearGradient id="linear-gradient-76" x1="-109.67" y1="375.5" x2="671.84" y2="-171.71" gradientTransform="matrix(1, 0, 0, 1, 0, 0)" xlink:href="#linear-gradient-3"/><linearGradient id="linear-gradient-77" x1="184.15" y1="799.31" x2="968.06" y2="250.41" gradientTransform="translate(1048.41 1173.12) rotate(-154.81)" xlink:href="#linear-gradient-3"/><linearGradient id="linear-gradient-78" x1="185.57" y1="798.32" x2="967.11" y2="251.07" gradientTransform="translate(-48.42 862.57) rotate(-64.81)" xlink:href="#linear-gradient-3"/><linearGradient id="linear-gradient-79" x1="217.53" y1="847.45" x2="1001.44" y2="298.56" gradientTransform="translate(1208.34 1230.87) rotate(-154.81)" xlink:href="#linear-gradient-3"/><linearGradient id="linear-gradient-80" x1="219.11" y1="846.35" x2="1000.65" y2="299.11" gradientTransform="translate(-8.75 947.09) rotate(-64.81)" xlink:href="#linear-gradient-3"/><linearGradient id="linear-gradient-81" x1="236.52" y1="874.62" x2="1020.43" y2="325.72" gradientTransform="translate(1222.65 1294.94) rotate(-154.81)" xlink:href="#linear-gradient-3"/><linearGradient id="linear-gradient-82" x1="238.09" y1="873.52" x2="1019.63" y2="326.28" gradientTransform="translate(-28.07 977.52) rotate(-64.81)" xlink:href="#linear-gradient-3"/><linearGradient id="linear-gradient-83" x1="185.59" y1="798.3" x2="967.1" y2="251.08" gradientTransform="matrix(1, 0, 0, 1, 0, 0)" xlink:href="#linear-gradient-3"/><linearGradient id="linear-gradient-84" x1="185.6" y1="798.3" x2="967.1" y2="251.09" gradientTransform="matrix(1, 0, 0, 1, 0, 0)" xlink:href="#linear-gradient-3"/><linearGradient id="linear-gradient-85" x1="154.76" y1="756.89" x2="938.67" y2="207.99" gradientTransform="translate(895.68 1127.13) rotate(-154.81)" xlink:href="#linear-gradient-3"/><linearGradient id="linear-gradient-86" x1="156.02" y1="756" x2="937.57" y2="208.76" gradientTransform="translate(-89.87 785.41) rotate(-64.81)" xlink:href="#linear-gradient-3"/><linearGradient id="linear-gradient-87" x1="190.52" y1="808.03" x2="974.42" y2="259.13" gradientTransform="translate(922.64 1247.77) rotate(-154.81)" xlink:href="#linear-gradient-3"/><linearGradient id="linear-gradient-88" x1="191.75" y1="807.17" x2="973.3" y2="259.92" gradientTransform="translate(-126.24 842.72) rotate(-64.81)" xlink:href="#linear-gradient-3"/><linearGradient id="linear-gradient-89" x1="156.05" y1="755.99" x2="937.55" y2="208.77" gradientTransform="matrix(1, 0, 0, 1, 0, 0)" xlink:href="#linear-gradient-3"/><linearGradient id="linear-gradient-90" x1="173.49" y1="781.01" x2="955.03" y2="233.76" gradientTransform="translate(1235.37 280.51) rotate(115.19)" xlink:href="#linear-gradient-3"/><linearGradient id="linear-gradient-91" x1="172.42" y1="781.76" x2="956.32" y2="232.86" gradientTransform="translate(780.47 1239.02) rotate(-154.81)" xlink:href="#linear-gradient-3"/><linearGradient id="linear-gradient-92" x1="173.51" y1="780.99" x2="955.01" y2="233.78" gradientTransform="matrix(1, 0, 0, 1, 0, 0)" xlink:href="#linear-gradient-3"/><linearGradient id="linear-gradient-93" x1="26.53" y1="570.59" x2="808.07" y2="23.34" gradientTransform="translate(956.88 -178.28) rotate(115.19)" xlink:href="#linear-gradient-3"/><linearGradient id="linear-gradient-94" x1="24.99" y1="571.66" x2="808.9" y2="22.77" gradientTransform="translate(927.83 636.4) rotate(-154.81)" xlink:href="#linear-gradient-3"/><linearGradient id="linear-gradient-95" x1="58.24" y1="615.99" x2="839.79" y2="68.75" gradientTransform="translate(1026.13 -101.28) rotate(115.19)" xlink:href="#linear-gradient-3"/><linearGradient id="linear-gradient-96" x1="56.77" y1="617.02" x2="840.68" y2="68.13" gradientTransform="translate(921.51 755.94) rotate(-154.81)" xlink:href="#linear-gradient-3"/><linearGradient id="linear-gradient-97" x1="58.27" y1="615.98" x2="839.77" y2="68.76" gradientTransform="matrix(1, 0, 0, 1, 0, 0)" xlink:href="#linear-gradient-3"/></defs><title>Tegnebræt 1</title><rect class="cls-1" width="841.89" height="595.28"/><g class="cls-2"><polygon class="cls-3" points="927.42 378.57 961.99 452.06 850.09 504.7 771.52 337.68 1002.85 228.87 839.44 -118.53 704.15 -54.9 825.14 202.31 657.28 281.27 806.55 598.61 800.98 601.23 816.83 634.91 822.95 632.03 833.69 654.86 1109.83 524.97 1099.22 502.42 1105.35 499.54 1089.5 465.85 1083.66 468.6 1020.94 335.26 927.42 378.57"/><polygon class="cls-3" points="652.85 474.58 297.93 641.53 194.23 421.06 187.97 424.01 171.86 389.77 178.12 386.82 139.04 303.73 183.72 282.71 180.77 276.45 213.76 260.93 216.11 265.94 250.35 249.84 348.36 458.2 591.38 343.89 652.85 474.58"/><rect class="cls-3" x="607.53" y="322.39" width="77.06" height="70.6" transform="translate(-90.8 309.01) rotate(-25.19)"/><polygon class="cls-3" points="586.75 519.44 626.62 604.2 757.32 542.73 683.66 386.14 647.75 403.04 701.57 517.45 648.54 542.39 628.51 499.8 586.75 519.44"/><polygon class="cls-3" points="777.45 133.46 736.4 46.2 466.67 173.07 479.82 201.05 662.29 115.22 690.18 174.51 777.45 133.46"/><polygon class="cls-3" points="390.96 211.24 352.54 229.31 351.82 227.78 349.73 228.76 348.95 227.09 337.67 232.39 338.43 233.99 337.18 234.58 337.93 236.18 324.84 242.34 350.05 295.92 299.11 319.88 322.42 369.43 459.23 305.08 459.94 306.58 461.61 305.79 462.41 307.49 479.25 299.57 478.45 297.87 480.51 296.9 479.67 295.12 497.66 286.66 474.61 237.67 416.29 265.1 390.96 211.24"/><rect class="cls-3" x="406.03" y="189.78" width="70.14" height="50.14" transform="translate(-49.5 208.18) rotate(-25.19)"/><polygon class="cls-3" points="681.14 178.77 655.8 124.91 578.41 161.31 633.28 277.94 652.49 268.91 622.96 206.13 681.14 178.77"/><rect class="cls-3" x="646.7" y="198.91" width="40.61" height="65.83" transform="translate(-35.24 305.95) rotate(-25.19)"/><polygon class="cls-3" points="646.57 314.87 573.9 160.37 481.2 203.97 524.93 296.95 551.38 284.51 549.68 280.89 582.52 265.44 613.16 330.58 646.57 314.87"/><rect class="cls-3" x="534.59" y="291.16" width="37.22" height="58.76" transform="translate(-83.82 265.95) rotate(-25.19)"/><polygon class="cls-3" points="562.08 -323.83 729.02 31.09 508.56 134.79 511.5 141.06 477.26 157.16 474.32 150.9 391.23 189.98 370.21 145.3 363.95 148.25 348.43 115.26 353.44 112.91 337.33 78.67 545.69 -19.34 431.38 -262.36 562.08 -323.83"/><polygon class="cls-3" points="298.74 -61.94 316.8 -23.52 315.27 -22.8 316.25 -20.71 314.58 -19.93 319.89 -8.65 321.49 -9.41 322.08 -8.15 323.68 -8.91 329.83 4.18 383.42 -21.03 407.38 29.91 456.93 6.6 392.57 -130.21 394.08 -130.92 393.29 -132.59 394.99 -133.39 387.07 -150.23 385.37 -149.43 384.4 -151.49 382.62 -150.65 374.16 -168.64 325.17 -145.59 352.6 -87.27 298.74 -61.94"/><polygon class="cls-3" points="-10.34 -53.48 63.15 -88.04 115.79 23.86 -51.23 102.42 -160.04 -128.9 -507.44 34.51 -443.81 169.8 -186.59 48.81 -107.64 216.67 209.7 67.4 212.32 72.97 246 57.12 243.12 51 265.95 40.26 136.06 -235.88 113.51 -225.28 110.63 -231.4 76.94 -215.56 79.69 -209.71 -53.64 -146.99 -10.34 -53.48"/><polygon class="cls-3" points="85.67 221.1 252.62 576.02 32.15 679.72 35.1 685.98 0.86 702.09 -2.09 695.83 -85.18 734.91 -106.2 690.23 -112.46 693.18 -127.98 660.19 -122.97 657.84 -139.07 623.6 69.29 525.59 -45.02 282.57 85.67 221.1"/><rect class="cls-3" x="-66.52" y="189.36" width="70.6" height="77.06" transform="translate(-99.97 8.38) rotate(-25.19)"/><polygon class="cls-3" points="130.53 287.19 336.52 190.3 275.05 59.61 -2.76 190.28 14.13 226.19 128.54 172.38 153.48 225.41 110.89 245.44 130.53 287.19"/><polygon class="cls-3" points="967.23 898.81 1001.79 972.3 889.89 1024.94 811.33 857.92 1042.65 749.11 932.64 515.23 797.35 578.86 864.94 722.55 697.08 801.51 846.35 1118.85 840.79 1121.47 856.63 1155.15 862.75 1152.27 873.49 1175.1 1149.63 1045.2 1139.03 1022.66 1145.15 1019.78 1129.31 986.09 1123.46 988.84 1060.74 855.5 967.23 898.81"/><polygon class="cls-3" points="817.26 653.7 776.21 566.43 506.47 693.32 519.63 721.29 702.1 635.46 729.99 694.75 817.26 653.7"/><rect class="cls-3" x="517.15" y="271.88" width="7.71" height="147.72" transform="translate(1139.62 436.85) rotate(154.81)"/><rect class="cls-3" x="466.68" y="295.63" width="7.71" height="147.72" transform="translate(1053.58 503.56) rotate(154.81)"/><rect class="cls-3" x="449.85" y="303.54" width="7.71" height="147.72" transform="translate(1024.9 525.79) rotate(154.81)"/><rect class="cls-3" x="433.03" y="311.45" width="7.71" height="147.72" transform="translate(996.22 548.03) rotate(154.81)"/><rect class="cls-3" x="416.2" y="319.37" width="7.71" height="147.72" transform="translate(967.54 570.27) rotate(154.81)"/><rect class="cls-3" x="399.38" y="327.28" width="7.71" height="147.72" transform="translate(938.86 592.5) rotate(154.81)"/><rect class="cls-3" x="382.55" y="335.2" width="7.71" height="147.72" transform="translate(910.18 614.74) rotate(154.81)"/><rect class="cls-3" x="365.73" y="343.11" width="7.71" height="147.72" transform="translate(881.5 636.97) rotate(154.81)"/><rect class="cls-3" x="348.9" y="351.02" width="7.71" height="147.72" transform="translate(852.82 659.21) rotate(154.81)"/><rect class="cls-3" x="666.04" y="466.17" width="8.95" height="147.72" transform="translate(1507.12 743.31) rotate(154.81)"/><rect class="cls-3" x="645.59" y="475.79" width="8.95" height="147.72" transform="translate(1472.26 770.33) rotate(154.81)"/><rect class="cls-3" x="625.15" y="485.41" width="8.95" height="147.72" transform="translate(1437.41 797.35) rotate(154.81)"/><rect class="cls-3" x="604.7" y="495.02" width="8.95" height="147.72" transform="translate(1402.56 824.37) rotate(154.81)"/><rect class="cls-3" x="584.26" y="504.64" width="8.95" height="147.72" transform="translate(1367.7 851.4) rotate(154.81)"/><rect class="cls-3" x="563.81" y="514.26" width="8.95" height="147.72" transform="translate(1332.85 878.42) rotate(154.81)"/><rect class="cls-3" x="543.37" y="523.88" width="8.95" height="147.72" transform="translate(1298 905.44) rotate(154.81)"/><rect class="cls-3" x="522.92" y="533.49" width="8.95" height="147.72" transform="translate(1263.14 932.46) rotate(154.81)"/><rect class="cls-3" x="502.48" y="543.11" width="8.95" height="147.72" transform="translate(1228.29 959.48) rotate(154.81)"/><rect class="cls-3" x="482.03" y="552.73" width="8.95" height="147.72" transform="translate(1193.44 986.51) rotate(154.81)"/><rect class="cls-3" x="-23.63" y="-46.97" width="8.95" height="141.29" transform="translate(-11.9 -5.9) rotate(-25.19)"/><rect class="cls-3" x="-3.18" y="-56.58" width="8.95" height="141.29" transform="translate(-5.86 1.89) rotate(-25.19)"/><rect class="cls-3" x="17.26" y="-66.2" width="8.95" height="141.29" transform="translate(0.18 9.67) rotate(-25.19)"/><rect class="cls-3" x="37.71" y="-75.82" width="8.95" height="141.29" transform="translate(6.21 17.46) rotate(-25.19)"/><rect class="cls-3" x="58.15" y="-85.44" width="8.95" height="141.29" transform="translate(12.25 25.25) rotate(-25.19)"/><rect class="cls-3" x="576.84" y="69.74" width="8.95" height="70.65" transform="translate(10.57 257.42) rotate(-25.19)"/><rect class="cls-3" x="597.28" y="60.13" width="8.95" height="70.65" transform="translate(16.6 265.21) rotate(-25.19)"/><rect class="cls-3" x="617.73" y="50.51" width="8.95" height="70.65" transform="translate(22.64 273) rotate(-25.19)"/><rect class="cls-3" x="638.17" y="40.89" width="8.95" height="70.65" transform="translate(28.68 280.79) rotate(-25.19)"/><rect class="cls-3" x="658.62" y="31.27" width="8.95" height="70.65" transform="translate(34.72 288.57) rotate(-25.19)"/><rect class="cls-3" x="679.06" y="21.66" width="8.95" height="70.65" transform="translate(40.76 296.36) rotate(-25.19)"/><rect class="cls-3" x="455.86" y="565.04" width="8.95" height="147.72" transform="translate(1148.82 1021.1) rotate(154.81)"/><rect class="cls-3" x="436" y="574.38" width="8.95" height="147.72" transform="translate(1114.98 1047.34) rotate(154.81)"/><rect class="cls-3" x="416.15" y="583.71" width="8.95" height="147.72" transform="translate(1081.14 1073.58) rotate(154.81)"/></g><rect class="cls-1" x="603.82" y="527.36" width="2.82" height="13" transform="translate(379.76 1308.76) rotate(-115.19)"/><rect class="cls-1" x="603.82" y="527.36" width="2.82" height="13" transform="translate(1380.13 759.33) rotate(154.81)"/><rect class="cls-1" x="571.16" y="457.92" width="2.82" height="13" transform="translate(396.03 1180.2) rotate(-115.19)"/><rect class="cls-1" x="571.16" y="457.92" width="2.82" height="13" transform="translate(1288.35 640.96) rotate(154.81)"/><rect class="cls-1" x="541.38" y="499.75" width="2.82" height="13" transform="translate(315.73 1212.9) rotate(-115.19)"/><rect class="cls-1" x="541.38" y="499.75" width="2.82" height="13" transform="translate(1249.45 733.32) rotate(154.81)"/><rect class="cls-1" x="510.86" y="514.11" width="2.82" height="13" transform="translate(259.22 1205.75) rotate(-115.19)"/><rect class="cls-1" x="510.86" y="514.11" width="2.82" height="13" transform="translate(1197.42 773.66) rotate(154.81)"/><rect class="cls-1" x="668.06" y="355.57" width="2.82" height="13" transform="translate(626.8 1121.98) rotate(-115.19)"/><rect class="cls-1" x="668.06" y="355.57" width="2.82" height="13" transform="translate(1429.38 404.74) rotate(154.81)"/><rect class="cls-1" x="622.98" y="344.61" width="2.82" height="13" transform="translate(572.44 1065.57) rotate(-115.19)"/><rect class="cls-1" x="622.98" y="344.61" width="2.82" height="13" transform="translate(1338.85 403.06) rotate(154.81)"/><rect class="cls-1" x="760.22" y="583.72" width="2.82" height="13" transform="translate(551.73 1530.64) rotate(-115.19)"/><rect class="cls-1" x="760.22" y="583.72" width="2.82" height="13" transform="translate(1702.05 800.13) rotate(154.81)"/><path class="cls-1" d="M561.83,469.47a11.86,11.86,0,1,1,15.78,5.68A11.87,11.87,0,0,1,561.83,469.47Zm20.63-9.71a10.94,10.94,0,1,0-5.24,14.56A10.95,10.95,0,0,0,582.46,459.76Z"/><path class="cls-1" d="M551.07,474.64l0-.09a23.93,23.93,0,0,1-1.77-5.3l.9-.19a22.84,22.84,0,0,0,1.71,5.1l0,.08Zm5.54,7.44.62-.68a22.83,22.83,0,0,0,4.38,3.1l-.44.81A23.52,23.52,0,0,1,556.61,482.08ZM549.19,460a23.6,23.6,0,0,1,1.68-5.33l.84.37a23.72,23.72,0,0,0-1.62,5.13ZM570,488.08l.1-.91a23,23,0,0,0,5.38-.06l.11.92A23.23,23.23,0,0,1,570,488.08Zm-13.77-41a23.72,23.72,0,0,1,4.5-3.33l.45.81a22.54,22.54,0,0,0-4.32,3.19ZM584,484.26a23.4,23.4,0,0,0,4.31-3.2l.64.67a24,24,0,0,1-4.49,3.33Zm-14.29-42.54-.11-.91a23.23,23.23,0,0,1,5.59-.05l-.1.92A22.52,22.52,0,0,0,569.67,441.72Zm23.77,32.06a23.69,23.69,0,0,0,1.61-5.13l.9.17a23.82,23.82,0,0,1-1.67,5.34Zm-9.88-29.42.44-.81a23.15,23.15,0,0,1,4.56,3.24l-.62.68A22.87,22.87,0,0,0,583.56,444.36ZM595,459.73a22.9,22.9,0,0,0-1.69-5.05l.57-.3.26-.1h0a23.75,23.75,0,0,1,1.76,5.26Z"/><rect class="cls-1" x="426.25" y="526.08" width="2.82" height="13" transform="translate(127.76 1146.25) rotate(-115.19)"/><rect class="cls-1" x="426.25" y="526.08" width="2.82" height="13" transform="translate(1041.33 832.48) rotate(154.81)"/><path class="cls-1" d="M416.93,537.63a11.86,11.86,0,1,1,15.78,5.68A11.86,11.86,0,0,1,416.93,537.63Zm20.63-9.71a10.94,10.94,0,1,0-5.25,14.56A11,11,0,0,0,437.56,527.92Z"/><rect class="cls-1" x="546.02" y="217.94" width="2.82" height="13" transform="translate(577.34 815.34) rotate(-115.19)"/><rect class="cls-1" x="546.02" y="217.94" width="2.82" height="13" transform="translate(1138.33 194.53) rotate(154.81)"/><path class="cls-1" d="M536.7,229.49a11.86,11.86,0,1,1,15.78,5.69A11.86,11.86,0,0,1,536.7,229.49Zm20.63-9.7a10.94,10.94,0,1,0-5.24,14.55A10.94,10.94,0,0,0,557.33,219.79Z"/><path class="cls-1" d="M525.9,234.58a24,24,0,0,1-1.78-5.31l.91-.19a22.65,22.65,0,0,0,1.7,5.1l0,.09-.83.39Zm5.58,7.53.61-.69a22.94,22.94,0,0,0,4.39,3.11l-.44.81A24,24,0,0,1,531.48,242.11ZM524.05,220a23.79,23.79,0,0,1,1.69-5.33l.84.38a22.59,22.59,0,0,0-1.62,5.12Zm20.85,28.12.1-.92a22.44,22.44,0,0,0,5.37-.05l.12.91A23.75,23.75,0,0,1,544.9,248.11Zm-13.78-41a24.11,24.11,0,0,1,4.5-3.32l.46.8a22.65,22.65,0,0,0-4.32,3.19Zm27.7,37.18a22.28,22.28,0,0,0,4.32-3.2l.63.67a23.34,23.34,0,0,1-4.49,3.33Zm-14.28-42.54-.12-.91a23.75,23.75,0,0,1,5.59-.05l-.1.92A23,23,0,0,0,544.54,201.74ZM568.3,233.8a22.56,22.56,0,0,0,1.61-5.12l.91.17a23.76,23.76,0,0,1-1.68,5.33Zm-9.88-29.42.45-.81a23.94,23.94,0,0,1,4.55,3.24l-.62.68A22.87,22.87,0,0,0,558.42,204.38Zm11.41,15.38a23.1,23.1,0,0,0-1.7-5l.57-.31.26-.1h0a23.86,23.86,0,0,1,1.77,5.27Z"/><rect class="cls-1" x="327.72" y="493.21" width="2.82" height="13" transform="translate(17.04 1010.25) rotate(-115.19)"/><rect class="cls-1" x="327.72" y="493.21" width="2.82" height="13" transform="translate(839.67 811.81) rotate(154.81)"/><path class="cls-1" d="M318.4,504.76a11.86,11.86,0,1,1,15.78,5.69A11.88,11.88,0,0,1,318.4,504.76Zm20.63-9.7a10.94,10.94,0,1,0-5.24,14.55A10.94,10.94,0,0,0,339,495.06Z"/><path class="cls-1" d="M307.64,509.93l0-.09a23.26,23.26,0,0,1-1.77-5.3l.9-.19a22.67,22.67,0,0,0,1.71,5.1l0,.09Zm5.54,7.45.62-.68a22.83,22.83,0,0,0,4.38,3.1l-.44.81A23.52,23.52,0,0,1,313.18,517.38Zm-7.42-22.12a23.92,23.92,0,0,1,1.68-5.33l.84.38a23,23,0,0,0-1.62,5.13Zm20.84,28.12.1-.92a22.43,22.43,0,0,0,5.37-.05l.12.91A23.75,23.75,0,0,1,326.6,523.38Zm-13.77-41a24.11,24.11,0,0,1,4.5-3.32l.45.8a22.59,22.59,0,0,0-4.32,3.2Zm27.7,37.18a22.52,22.52,0,0,0,4.31-3.2l.64.67a24,24,0,0,1-4.49,3.33ZM326.24,477l-.11-.92a23.75,23.75,0,0,1,5.59-.05l-.1.92A22.52,22.52,0,0,0,326.24,477ZM350,509.08a23.69,23.69,0,0,0,1.61-5.13l.9.17a23.74,23.74,0,0,1-1.67,5.33Zm-9.88-29.43.44-.81a24.33,24.33,0,0,1,4.56,3.24l-.62.69A22.8,22.8,0,0,0,340.13,479.65ZM351.53,495a22.75,22.75,0,0,0-1.7-5l.62-.33.21-.09h0a24,24,0,0,1,1.77,5.27Z"/><rect class="cls-1" x="577.1" y="376.19" width="2.82" height="13" transform="translate(478.46 1069.07) rotate(-115.19)"/><rect class="cls-1" x="577.1" y="376.19" width="2.82" height="13" transform="translate(1264.9 482.74) rotate(154.81)"/><rect class="cls-1" x="519.64" y="403.22" width="2.82" height="13" transform="translate(372.07 1055.61) rotate(-115.19)"/><rect class="cls-1" x="519.64" y="403.22" width="2.82" height="13" transform="translate(1166.93 558.69) rotate(154.81)"/><rect class="cls-1" x="278.12" y="516.82" width="2.82" height="13" transform="translate(-75.04 999.02) rotate(-115.19)"/><rect class="cls-1" x="278.12" y="516.82" width="2.82" height="13" transform="translate(755.22 877.9) rotate(154.81)"/><path class="cls-1" d="M567.78,387.74a11.86,11.86,0,1,1,15.78,5.68A11.87,11.87,0,0,1,567.78,387.74ZM588.41,378a10.94,10.94,0,1,0-5.24,14.56A10.95,10.95,0,0,0,588.41,378Z"/><rect class="cls-1" x="188.92" y="334.82" width="2.82" height="13" transform="translate(418.18 23.82) rotate(64.81)"/><rect class="cls-1" x="188.92" y="334.82" width="2.82" height="13" transform="translate(-127.18 113.48) rotate(-25.19)"/><rect class="cls-1" x="246.39" y="307.79" width="2.82" height="13" transform="translate(426.73 -43.71) rotate(64.81)"/><rect class="cls-1" x="246.39" y="307.79" width="2.82" height="13" transform="translate(-110.21 135.36) rotate(-25.19)"/><rect class="cls-1" x="277.18" y="373.27" width="2.82" height="13" transform="translate(503.66 -33.97) rotate(64.81)"/><rect class="cls-1" x="277.18" y="373.27" width="2.82" height="13" transform="translate(-135.15 154.7) rotate(-25.19)"/><path class="cls-1" d="M179.6,346.37a11.86,11.86,0,1,1,15.78,5.69A11.87,11.87,0,0,1,179.6,346.37Zm20.63-9.7A10.94,10.94,0,1,0,195,351.22,11,11,0,0,0,200.23,336.67Z"/><path class="cls-1" d="M232.22,458.24A11.86,11.86,0,1,1,248,463.93,11.87,11.87,0,0,1,232.22,458.24Zm20.63-9.7a10.94,10.94,0,1,0-5.25,14.55A11,11,0,0,0,252.85,448.54Z"/><path class="cls-1" d="M148.32,50.7a11.86,11.86,0,1,1,15.78,5.68A11.86,11.86,0,0,1,148.32,50.7ZM168.94,41a10.94,10.94,0,1,0-5.24,14.55A11,11,0,0,0,168.94,41Z"/><rect class="cls-1" x="26.31" y="316.83" width="2.82" height="13" transform="translate(308.51 160.62) rotate(64.81)"/><rect class="cls-1" x="26.31" y="316.83" width="2.82" height="13" transform="translate(-134.99 42.55) rotate(-25.19)"/><path class="cls-1" d="M17,328.38a11.86,11.86,0,1,1,15.78,5.69A11.88,11.88,0,0,1,17,328.38Zm20.63-9.7a10.94,10.94,0,1,0-5.24,14.55A10.94,10.94,0,0,0,37.62,318.68Z"/><path class="cls-1" d="M6.21,333.51l0-.05a23.33,23.33,0,0,1-1.76-5.25l.9-.19A22.72,22.72,0,0,0,7,333.07ZM11.73,341l.62-.69a22.49,22.49,0,0,0,4.38,3.12l-.44.81A24,24,0,0,1,11.73,341Zm-7.4-22A23.76,23.76,0,0,1,6,313.6l.84.37a23.87,23.87,0,0,0-1.61,5.13ZM25.14,347l.1-.92a22.52,22.52,0,0,0,5.38-.05l.11.92A23.75,23.75,0,0,1,25.14,347ZM11.38,306a24,24,0,0,1,4.49-3.33l.46.8A22.91,22.91,0,0,0,12,306.7ZM39.07,343.2A22.66,22.66,0,0,0,43.4,340l.63.68a24.11,24.11,0,0,1-4.5,3.32ZM24.78,300.64l-.11-.91a23.75,23.75,0,0,1,5.59-.06l-.1.92A22.52,22.52,0,0,0,24.78,300.64Zm23.8,32.1a23.1,23.1,0,0,0,1.62-5.12l.9.17a23.76,23.76,0,0,1-1.68,5.33Zm-9.91-29.49.45-.81a23.83,23.83,0,0,1,4.56,3.23l-.62.68A22.9,22.9,0,0,0,38.67,303.25Zm11.46,15.44a22.76,22.76,0,0,0-1.71-5.09l0-.09.84-.39,0,.07h0A23.21,23.21,0,0,1,51,318.51Z"/><path class="cls-1" d="M842.52,219.48l.8-.46a23,23,0,0,0,3.19,4.32l-.67.63A24,24,0,0,1,842.52,219.48Zm-2.95-8.8a23.84,23.84,0,0,1-.05-5.6l.92.1a22.52,22.52,0,0,0,0,5.38Zm13.83,18.68.38-.84a23.1,23.1,0,0,0,5.12,1.62l-.17.91A23.79,23.79,0,0,1,853.4,229.36Zm-11.09-33.13a23.94,23.94,0,0,1,3.24-4.55l.69.62a22.42,22.42,0,0,0-3.12,4.37ZM868,231l-.19-.91a22.65,22.65,0,0,0,5.1-1.7l.09,0,.39.83-.09,0A24,24,0,0,1,868,231Zm-15-44.83,0,0a24.1,24.1,0,0,1,5.26-1.76l.19.9a23.1,23.1,0,0,0-5,1.7ZM880.16,223a22.87,22.87,0,0,0,3.11-4.38l.81.44a24,24,0,0,1-3.23,4.56Zm-12.74-37.81.17-.91a24.26,24.26,0,0,1,5.33,1.67l-.37.85A22.64,22.64,0,0,0,867.42,185.19Zm18.51,24.91a22.44,22.44,0,0,0,0-5.37l.91-.12a23.75,23.75,0,0,1,.06,5.59ZM879.82,192l.67-.63a23.34,23.34,0,0,1,3.33,4.49l-.8.46A22.28,22.28,0,0,0,879.82,192Z"/><rect class="cls-1" x="635.39" y="0.95" width="2.82" height="13" transform="translate(901.11 586.86) rotate(-115.19)"/><rect class="cls-1" x="635.39" y="0.95" width="2.82" height="13" transform="translate(1216.21 -256.86) rotate(154.81)"/><rect class="cls-1" x="605.62" y="42.78" width="2.82" height="13" transform="translate(820.81 619.56) rotate(-115.19)"/><rect class="cls-1" x="605.62" y="42.78" width="2.82" height="13" transform="translate(1177.3 -164.5) rotate(154.81)"/><rect class="cls-1" x="575.1" y="57.14" width="2.82" height="13" transform="translate(764.31 612.4) rotate(-115.19)"/><rect class="cls-1" x="575.1" y="57.14" width="2.82" height="13" transform="translate(1125.27 -124.16) rotate(154.81)"/><path class="cls-1" d="M626.07,12.5a11.86,11.86,0,1,1,15.78,5.68A11.88,11.88,0,0,1,626.07,12.5ZM646.7,2.79a10.94,10.94,0,1,0-5.24,14.56A11,11,0,0,0,646.7,2.79Z"/><path class="cls-1" d="M615.31,17.67l0-.09a24,24,0,0,1-1.78-5.3l.91-.19a22.81,22.81,0,0,0,1.7,5.1l0,.08Zm5.54,7.45.61-.69a22.77,22.77,0,0,0,4.39,3.1l-.44.82A24.41,24.41,0,0,1,620.85,25.12ZM613.42,3a23.63,23.63,0,0,1,1.69-5.33L616-2a23.18,23.18,0,0,0-1.62,5.13Zm20.85,28.12.1-.92a23,23,0,0,0,5.37-.06l.12.92A23.75,23.75,0,0,1,634.27,31.12Zm-13.78-41a23.56,23.56,0,0,1,4.5-3.32l.46.8a22.54,22.54,0,0,0-4.32,3.19Zm27.7,37.18a22.7,22.7,0,0,0,4.32-3.2l.63.67a23.34,23.34,0,0,1-4.49,3.33ZM633.91-15.25l-.12-.91a23.31,23.31,0,0,1,5.6-.05l-.11.92A22.44,22.44,0,0,0,633.91-15.25Zm23.76,32.06a22.48,22.48,0,0,0,1.61-5.13l.91.17a24.34,24.34,0,0,1-1.67,5.34ZM647.8-12.61l.44-.81a23.94,23.94,0,0,1,4.55,3.24l-.62.68A22.81,22.81,0,0,0,647.8-12.61ZM659.2,2.76a23.46,23.46,0,0,0-1.7-5l.57-.3.26-.1h0a23.78,23.78,0,0,1,1.77,5.26Z"/><rect class="cls-1" x="825.34" y="557" width="2.82" height="13" transform="translate(1814.73 721.5) rotate(154.81)"/><rect class="cls-1" x="825.34" y="557" width="2.82" height="13" transform="translate(984.76 -424.47) rotate(64.81)"/><path class="cls-1" d="M816,568.55a11.86,11.86,0,1,1,15.78,5.68A11.87,11.87,0,0,1,816,568.55Zm20.63-9.71a10.94,10.94,0,1,0-5.24,14.56A10.95,10.95,0,0,0,836.65,558.84Z"/><rect class="cls-1" x="723.46" y="71.58" width="2.82" height="13" transform="translate(962.75 767.25) rotate(-115.19)"/><rect class="cls-1" x="723.46" y="71.58" width="2.82" height="13" transform="translate(1414.03 -159.79) rotate(154.81)"/><rect class="cls-1" x="742.04" y="111.08" width="2.82" height="13" transform="translate(953.49 840.37) rotate(-115.19)"/><rect class="cls-1" x="742.04" y="111.08" width="2.82" height="13" transform="translate(1466.24 -92.46) rotate(154.81)"/><path class="cls-1" d="M732.72,122.63a11.86,11.86,0,1,1,15.78,5.69A11.87,11.87,0,0,1,732.72,122.63Zm20.63-9.7a10.94,10.94,0,1,0-5.25,14.55A11,11,0,0,0,753.35,112.93Z"/><polygon class="cls-1" points="965.76 625.69 854.09 387.5 595.85 387.5 706.9 625.67 580.41 625.69 738.9 965.59 995.66 965.59 836.32 625.69 965.76 625.69"/><polygon class="cls-4" points="906.03 418.42 1028.77 418.42 909.67 164.65 664.56 164.65 783.33 418.39 663.4 418.42 805.27 722.69 1048.68 722.69 906.03 418.42"/><path class="cls-5" d="M505.88,70.23l.69,0,.35,0,.34,0,.18,0,.17,0L508,70l.08,0,.09,0,.16,0,.17,0,.17,0,.33-.1.17,0,.16,0,.33-.11.32-.13.16-.06.16-.07.31-.14.16-.07.15-.08.15-.08.08,0,.08,0,.3-.17.07,0,.07,0,.15-.09.15-.09.14-.09.28-.2a.71.71,0,0,0,.14-.1l.14-.1.27-.21.26-.22.14-.11.12-.12.25-.23c.09-.08.16-.17.25-.25l.12-.12,0,0,0,0,.06-.06.23-.26.11-.13.11-.13.11-.13,0-.07.06-.07.2-.27,0-.07.05-.07.1-.14c.26-.38.48-.78.7-1.18l.15-.31.07-.15c0-.05,0-.1.07-.16l.13-.31c0-.11.09-.21.13-.32s.15-.43.22-.65l0-.08,0-.08,0-.16,0-.17a1,1,0,0,0,.05-.16l.07-.34c0-.05,0-.11,0-.16l0-.17,0-.34c0-.11,0-.22,0-.34l0-.17a.19.19,0,0,0,0-.08v-.09l0-.34V58.05l0-.34a1,1,0,0,0,0-.17l0-.17L517,57c0-.11,0-.22,0-.33l0-.17,0-.08,0-.09-.08-.33V56l0-.08,0-.17-.1-.33-.1-.32-.12-.32-.12-.32,0-.07,0-.08-.07-.16-.07-.15,0-.08,0-.08-.16-.3-.07-.15-.09-.15-.17-.3-.18-.28a2.9,2.9,0,0,0-.19-.29L515,52l-.05-.07,0-.06-.1-.14-.11-.13,0-.07,0,0,0,0-.23-.25a.69.69,0,0,0-.11-.13l-.12-.13-.23-.24-.25-.24-.24-.23-.26-.23a.18.18,0,0,0-.07,0l-.06-.06-.14-.1-.13-.11-.14-.1-.27-.2-.14-.1-.15-.09-.28-.19-.3-.17-.14-.09-.08,0-.07,0-.31-.16-.07,0-.08,0-.16-.07-.15-.07-.16-.07-.31-.13-.16-.06L509.6,48l-.33-.11-.33-.1-.16-.05-.08,0-.09,0c-.22,0-.44-.11-.66-.15l-.34-.06-.34,0c-.22,0-.45-.05-.68-.07l-.34,0h-.35a12.67,12.67,0,0,0-1.37.06l-.17,0h-.17l-.34,0h-.08l-.09,0-.17,0-.17,0h-.08l-.08,0-.34.09-.08,0-.08,0-.17,0-.17,0-.08,0-.08,0-.33.11-.08,0-.08,0-.16.06-.16.06-.08,0-.08,0-.31.14a.2.2,0,0,0-.08,0l-.08,0-.15.07c-.21.1-.41.22-.62.33a1.1,1.1,0,0,0-.14.09l-.15.09-.15.09-.14.09-.29.19-.28.21-.14.1-.14.11-.27.22a11.39,11.39,0,0,1,4.85-2.66l.09,0,.08,0,.18,0,.17,0,.08,0h.09l.35-.06.08,0h.09l.17,0a13.41,13.41,0,0,1,1.4-.11,12.59,12.59,0,0,1,2.8.32l.08,0,.09,0,.17,0,.34.09.34.11.16.06.17.06.33.13.16.07.16.07.16.07.08,0a.2.2,0,0,1,.08,0l.32.15.08,0,.08.05.15.08.31.18.3.19.15.09.14.1.29.21.14.1.14.11.14.11.07.05.07.06.27.23.26.24.25.24.25.26.12.13.12.13.23.27,0,0,0,0,0,.07.11.14.11.14.06.07.05.07.2.29.2.3.19.29.18.31.09.16.08.15.16.32,0,.08,0,.08.08.16.07.16a.3.3,0,0,0,0,.08l0,.08.13.33.12.34c0,.11.07.22.11.33l.1.34,0,.17,0,.09,0,.09.08.34v.09l0,.09,0,.17.06.35,0,.35,0,.18s0,.11,0,.17l0,.36v.35c0,.12,0,.23,0,.35v.71l0,.35v.09a.28.28,0,0,0,0,.09l0,.17c0,.12,0,.24,0,.35l-.07.35,0,.18a1.36,1.36,0,0,1,0,.17l-.08.34c0,.06,0,.12,0,.18l-.05.17,0,.17s0,.05,0,.08l0,.08c-.08.23-.15.45-.24.67s-.08.22-.13.33l-.14.32-.07.16-.08.16-.16.31a10.51,10.51,0,0,1-.75,1.2A11.65,11.65,0,0,1,511.28,69l-.08,0-.08,0-.16.07-.16.08-.16.07-.32.13-.16.07-.17,0-.33.12-.33.1-.17,0-.17,0-.34.08-.17,0-.17,0-.17,0-.09,0H508l-.34,0-.17,0-.18,0-.35,0h-.34a2.08,2.08,0,0,1-.35,0Z"/><path class="cls-5" d="M499.8,58.87a5.9,5.9,0,0,0,.43,2.23A5.72,5.72,0,0,0,501.47,63a5.52,5.52,0,0,0,.87.73,5.78,5.78,0,0,0,1,.54,5.26,5.26,0,0,0,1.09.33,5.51,5.51,0,0,0,3.32-.42,5.43,5.43,0,0,0,1.77-1.34,6.18,6.18,0,0,0,.64-.88,5.54,5.54,0,0,0,.46-1l.05-.12s0-.09,0-.13l0-.13a.93.93,0,0,0,0-.13l0-.14,0-.13a.59.59,0,0,1,0-.13.59.59,0,0,0,0-.13,6.44,6.44,0,0,0,.09-1.07,6.35,6.35,0,0,0-.09-1.07,5.46,5.46,0,0,0-.29-1,5.57,5.57,0,0,0-2.9-3.08,5.52,5.52,0,0,0-2.13-.48,5.16,5.16,0,0,0-1.1.09,4.92,4.92,0,0,0-1.06.3,5.7,5.7,0,0,0-1.87,1.2,5.83,5.83,0,0,0-1.28,1.86,5.65,5.65,0,0,0-.34,1.08A5.35,5.35,0,0,0,499.8,58.87Zm-.33,0a6.94,6.94,0,0,1,.1-1.2,6.43,6.43,0,0,1,.33-1.16,6.33,6.33,0,0,1,1.28-2,6.25,6.25,0,0,1,2-1.42,6.18,6.18,0,0,1,2.4-.54,6.25,6.25,0,0,1,2.45.44,6.46,6.46,0,0,1,2.1,1.37,6.31,6.31,0,0,1,.81,1,6.6,6.6,0,0,1,.6,1.11,5.85,5.85,0,0,1,.38,1.21,6.08,6.08,0,0,1,.13,1.27,5.42,5.42,0,0,1-.13,1.27s0,.1,0,.15l0,.15a.75.75,0,0,1-.05.16l0,.15a.88.88,0,0,1-.05.15l-.06.14-.06.15-.06.15a7.36,7.36,0,0,1-.63,1.09,6.66,6.66,0,0,1-.82.94A6.57,6.57,0,0,1,508,64.66l-.29.1-.29.08-.3.08-.3,0a7,7,0,0,1-1.21.1,6,6,0,0,1-1.19-.14,5.72,5.72,0,0,1-1.15-.37,6,6,0,0,1-1.05-.58,5.61,5.61,0,0,1-.92-.77,6,6,0,0,1-1.32-2A6.12,6.12,0,0,1,499.47,58.87Z"/><path class="cls-5" d="M576.27,70.23l.69,0,.35,0,.34,0,.17,0,.17,0,.34-.06.09,0,.08,0,.17,0,.17,0,.17,0,.33-.1.16,0,.17,0,.32-.11.33-.13.16-.06.15-.07.32-.14.15-.07.16-.08.15-.08.08,0,.07,0,.3-.17.08,0,.07,0,.15-.09.14-.09.15-.09.28-.2.14-.1.13-.1.28-.21.26-.22.13-.11.13-.12.25-.23.24-.25.12-.12,0,0,0,0,.06-.06.23-.26.11-.13L585,66l.11-.13a.18.18,0,0,1,0-.07l.05-.07.21-.27.05-.07a.18.18,0,0,1,0-.07l.09-.14a11.8,11.8,0,0,0,.7-1.18l.15-.31.08-.15.06-.16.14-.31.12-.32c.09-.21.15-.43.22-.65l0-.08s0,0,0-.08l0-.16,0-.17c0-.05,0-.11,0-.16l.08-.34,0-.16,0-.17.06-.34c0-.11,0-.22,0-.34l0-.17s0-.05,0-.08v-.09l0-.34V58.05l0-.34c0-.06,0-.11,0-.17l0-.17,0-.34-.06-.33,0-.17v-.08l0-.09-.08-.33,0-.08s0-.06,0-.08l-.05-.17-.09-.33-.11-.32-.11-.32-.13-.32,0-.07,0-.08-.07-.16L586.5,54l0-.08a.3.3,0,0,0,0-.08l-.15-.3-.08-.15-.08-.15-.17-.3-.19-.28-.18-.29-.2-.28,0-.07-.05-.06-.11-.14-.1-.13,0-.07,0,0,0,0-.22-.25-.11-.13L584.5,51l-.23-.24-.25-.24a2.73,2.73,0,0,0-.25-.23l-.26-.23-.06,0-.07-.06-.13-.1-.13-.11-.14-.1-.28-.2-.14-.1-.14-.09-.29-.19-.29-.17-.15-.09-.07,0-.08,0-.3-.16-.08,0-.08,0-.15-.07-.16-.07-.15-.07-.32-.13-.16-.06L580,48l-.32-.11-.33-.1-.16-.05-.09,0-.08,0c-.22,0-.44-.11-.67-.15l-.33-.06-.34,0c-.23,0-.46-.05-.69-.07l-.34,0h-.34a12.45,12.45,0,0,0-1.37.06l-.17,0h-.17l-.34,0h-.09l-.08,0-.17,0-.17,0h-.08l-.09,0-.33.09-.09,0-.08,0-.16,0-.17,0-.08,0-.08,0-.33.11-.08,0-.08,0-.16.06-.16.06-.08,0-.08,0-.32.14-.08,0-.07,0-.16.07c-.21.1-.41.22-.61.33a1.19,1.19,0,0,0-.15.09l-.15.09-.14.09-.15.09-.29.19-.28.21-.14.1-.13.11-.27.22a11.33,11.33,0,0,1,4.85-2.66l.08,0,.09,0,.17,0,.17,0,.09,0h.08l.35-.06.09,0h.08l.18,0a13,13,0,0,1,1.4-.11,12.44,12.44,0,0,1,2.79.32l.09,0,.09,0,.17,0,.34.09.33.11.17.06.16.06.33.13.17.07.16.07.16.07.08,0,.08,0,.31.15.08,0,.08.05.16.08.3.18.3.19.15.09.15.1.29.21.14.1.14.11.14.11.07.05.06.06.27.23.26.24.26.24.24.26.13.13.11.13.24.27,0,0,0,0,.06.07.11.14.11.14,0,.07.05.07.21.29.2.3.19.29.17.31.09.16.08.15.16.32a.2.2,0,0,1,0,.08l0,.08.07.16.07.16a.3.3,0,0,1,0,.08l0,.08.13.33c0,.11.08.23.12.34l.12.33.09.34,0,.17s0,.06,0,.09l0,.09.08.34,0,.09,0,.09,0,.17.06.35,0,.35,0,.18s0,.11,0,.17l0,.36v1.41l0,.35v.09a.28.28,0,0,1,0,.09l0,.17c0,.12,0,.24,0,.35l-.06.35,0,.18s0,.11,0,.17l-.08.34a1.21,1.21,0,0,1,0,.18l0,.17,0,.17,0,.08,0,.08c-.08.23-.15.45-.24.67l-.13.33-.15.32a.77.77,0,0,1-.07.16l-.08.16-.16.31a12,12,0,0,1-.74,1.2A11.6,11.6,0,0,1,581.66,69l-.07,0-.08,0-.16.07-.16.08-.16.07-.33.13-.16.07-.16,0-.33.12-.34.1-.17,0-.17,0L579,70l-.17,0-.17,0-.17,0-.08,0h-.09l-.35,0-.17,0-.17,0-.35,0H577a2,2,0,0,1-.35,0Z"/><path class="cls-5" d="M570.19,58.87a5.89,5.89,0,0,0,.42,2.23A6,6,0,0,0,571.85,63a5.59,5.59,0,0,0,.88.73,5.49,5.49,0,0,0,5.42.45,5.49,5.49,0,0,0,1.76-1.34,6.25,6.25,0,0,0,.65-.88,6.33,6.33,0,0,0,.46-1l0-.12a.93.93,0,0,0,0-.13l0-.13,0-.13,0-.14,0-.13,0-.13a.59.59,0,0,1,0-.13,9.65,9.65,0,0,0,.09-1.07A5.73,5.73,0,0,0,579.84,55a5.63,5.63,0,0,0-1.75-1.26,5.56,5.56,0,0,0-2.13-.48,5.79,5.79,0,0,0-2.17.39,5.7,5.7,0,0,0-1.87,1.2,6,6,0,0,0-1.27,1.86,5,5,0,0,0-.34,1.08A5.35,5.35,0,0,0,570.19,58.87Zm-.34,0a7,7,0,0,1,.11-1.2,6.41,6.41,0,0,1,.32-1.16,6.22,6.22,0,0,1,8.12-3.57,6.38,6.38,0,0,1,2.91,2.34,6.65,6.65,0,0,1,.61,1.11,7.38,7.38,0,0,1,.38,1.21,6.84,6.84,0,0,1,.13,1.27,5.43,5.43,0,0,1-.14,1.27.83.83,0,0,1,0,.15l0,.15c0,.06,0,.11,0,.16l0,.15-.06.15,0,.14-.06.15-.07.15a6.52,6.52,0,0,1-.62,1.09,6.73,6.73,0,0,1-.83.94,6.47,6.47,0,0,1-2.09,1.29l-.29.1-.29.08-.29.08-.3,0a7.06,7.06,0,0,1-1.21.1,6.05,6.05,0,0,1-1.2-.14,5.93,5.93,0,0,1-1.15-.37,6.34,6.34,0,0,1-1.05-.58,5.61,5.61,0,0,1-.92-.77,6.2,6.2,0,0,1-1.79-4.34Z"/><path class="cls-5" d="M646.65,70.23l.7,0,.34,0,.34,0,.18,0,.17,0,.34-.06.08,0,.09,0,.17,0,.16,0,.17,0,.33-.1.17,0,.16,0,.33-.11.32-.13.16-.06.16-.07.31-.14.16-.07.15-.08.16-.08.07,0,.08,0,.3-.17.07,0,.08,0,.14-.09.15-.09.14-.09.28-.2a.71.71,0,0,0,.14-.1l.14-.1.27-.21.27-.22.13-.11.12-.12.25-.23c.09-.08.17-.17.25-.25l.12-.12,0,0,0,0,0-.06.23-.26.11-.13.11-.13.11-.13.06-.07.05-.07.2-.27.05-.07,0-.07.1-.14c.26-.38.48-.78.7-1.18l.15-.31.07-.15a.77.77,0,0,0,.07-.16l.14-.31.12-.32c.08-.21.15-.43.22-.65l0-.08,0-.08,0-.16.05-.17c0-.05,0-.11,0-.16l.07-.34c0-.05,0-.11,0-.16l0-.17.05-.34c0-.11,0-.22,0-.34l0-.17a.25.25,0,0,1,0-.08v-.09l0-.34V58.05l0-.34c0-.06,0-.11,0-.17l0-.17,0-.34-.06-.33,0-.17,0-.08,0-.09-.07-.33,0-.08a.31.31,0,0,1,0-.08l-.05-.17-.09-.33-.11-.32c0-.11-.07-.21-.12-.32l-.12-.32,0-.07a.59.59,0,0,1,0-.08L657,54.1l-.07-.15,0-.08,0-.08-.16-.3-.07-.15-.09-.15-.17-.3-.18-.28a2.9,2.9,0,0,0-.19-.29l-.19-.28,0-.07-.06-.06-.1-.14-.11-.13-.05-.07,0,0,0,0-.23-.25a.69.69,0,0,0-.11-.13l-.11-.13-.24-.24-.24-.24-.25-.23-.26-.23a.18.18,0,0,0-.07,0l-.06-.06-.14-.1-.13-.11-.13-.1-.28-.2-.14-.1-.14-.09-.29-.19-.3-.17-.14-.09-.08,0-.07,0-.31-.16-.07,0-.08,0-.16-.07-.15-.07-.16-.07-.31-.13-.16-.06-.16-.06-.33-.11-.32-.1-.17-.05-.08,0-.08,0-.67-.15-.34-.06-.34,0c-.22,0-.45-.05-.68-.07l-.34,0h-.34a12.74,12.74,0,0,0-1.38.06l-.17,0H645l-.34,0h-.08l-.09,0-.17,0-.16,0H644l-.08,0-.34.09-.08,0-.08,0-.17,0-.16,0-.09,0-.08,0-.33.11-.08,0-.08,0-.16.06-.16.06-.08,0-.08,0-.31.14a.2.2,0,0,0-.08,0l-.08,0-.15.07c-.21.1-.41.22-.61.33a.75.75,0,0,0-.15.09l-.15.09-.15.09-.14.09-.29.19-.28.21-.14.1-.14.11-.27.22a11.37,11.37,0,0,1,4.86-2.66l.08,0,.09,0,.17,0,.17,0,.08,0h.09l.35-.06.08,0h.09l.17,0a13.38,13.38,0,0,1,1.41-.11,12.57,12.57,0,0,1,2.79.32l.09,0,.08,0,.17,0,.34.09.34.11.16.06.17.06.33.13.16.07.16.07.16.07.09,0,.07,0,.32.15.08,0,.08.05.15.08.31.18.3.19.15.09.14.1.29.21.14.1.14.11.14.11.07.05.07.06.27.23.26.24.26.24.24.26.12.13.12.13.23.27,0,0,0,0,0,.07.11.14.11.14.06.07.05.07.2.29a2.61,2.61,0,0,1,.2.3l.19.29.18.31.09.16.08.15.16.32,0,.08,0,.08.08.16.07.16,0,.08,0,.08.13.33.12.34.11.33.1.34,0,.17a.29.29,0,0,0,0,.09l0,.09.08.34,0,.09v.09l0,.17c0,.12,0,.23.06.35l0,.35,0,.18a.91.91,0,0,1,0,.17l0,.36v.35c0,.12,0,.23,0,.35v.71l0,.35v.09s0,.06,0,.09l0,.17c0,.12,0,.24,0,.35l-.06.35,0,.18,0,.17-.08.34c0,.06,0,.12,0,.18l-.05.17,0,.17a.31.31,0,0,1,0,.08l0,.08a5.35,5.35,0,0,1-.24.67c0,.11-.08.22-.13.33l-.14.32c0,.06-.05.11-.07.16l-.08.16-.16.31a10.51,10.51,0,0,1-.75,1.2A11.57,11.57,0,0,1,652.05,69l-.08,0-.08,0-.16.07-.16.08-.16.07-.32.13-.16.07-.17,0-.33.12-.33.1-.17,0-.17,0-.34.08-.17,0-.17,0-.17,0-.09,0h-.09l-.34,0-.17,0-.18,0-.34,0h-.35a2,2,0,0,1-.35,0Z"/><path class="cls-5" d="M640.57,58.87A5.9,5.9,0,0,0,641,61.1,5.72,5.72,0,0,0,642.24,63a5.52,5.52,0,0,0,.87.73,5.78,5.78,0,0,0,1,.54,5.26,5.26,0,0,0,1.09.33,5.44,5.44,0,0,0,1.13.09,5.29,5.29,0,0,0,2.19-.51,5.43,5.43,0,0,0,1.77-1.34,5.49,5.49,0,0,0,.64-.88,6.39,6.39,0,0,0,.47-1l0-.12s0-.09,0-.13l0-.13,0-.13,0-.14,0-.13s0-.09,0-.13a.59.59,0,0,0,0-.13,6.44,6.44,0,0,0,.09-1.07,4.79,4.79,0,0,0-.09-1.07,5.46,5.46,0,0,0-.29-1A5.76,5.76,0,0,0,650.23,55a5.48,5.48,0,0,0-3.89-1.74,5.16,5.16,0,0,0-1.1.09,4.92,4.92,0,0,0-1.06.3,5.7,5.7,0,0,0-1.87,1.2A5.83,5.83,0,0,0,641,56.66a6.46,6.46,0,0,0-.34,1.08A5.35,5.35,0,0,0,640.57,58.87Zm-.33,0a6.09,6.09,0,0,1,.11-1.2,5.69,5.69,0,0,1,.32-1.16,6.19,6.19,0,0,1,1.29-2,6.1,6.1,0,0,1,2-1.42,6.24,6.24,0,0,1,4.85-.1,6.46,6.46,0,0,1,2.1,1.37,6.31,6.31,0,0,1,.81,1,6,6,0,0,1,.6,1.11,5.85,5.85,0,0,1,.38,1.21,6.86,6.86,0,0,1,.14,1.27,6,6,0,0,1-.14,1.27s0,.1,0,.15l0,.15a.75.75,0,0,1-.05.16l0,.15a.88.88,0,0,1,0,.15l-.06.14a.94.94,0,0,1-.06.15l-.06.15a5.93,5.93,0,0,1-.63,1.09,6.66,6.66,0,0,1-.82.94,6.57,6.57,0,0,1-2.09,1.29l-.29.1-.29.08-.3.08-.3,0a7,7,0,0,1-1.21.1,6,6,0,0,1-1.19-.14,5.72,5.72,0,0,1-1.15-.37,6,6,0,0,1-1-.58,5.61,5.61,0,0,1-.92-.77,6,6,0,0,1-1.32-2A6.12,6.12,0,0,1,640.24,58.87Z"/><path class="cls-5" d="M717,70.23l.69,0,.35,0,.34,0,.17,0,.17,0,.34-.06.09,0,.08,0,.17,0,.17,0,.17,0,.33-.1.16,0,.17,0,.32-.11.33-.13.16-.06.15-.07.32-.14.15-.07L722,69l.15-.08.08,0,.07,0,.3-.17.08,0,.07,0,.15-.09.14-.09.15-.09.28-.2.14-.1.14-.1.27-.21.26-.22.13-.11.13-.12.25-.23.24-.25.12-.12,0,0,0,0,.06-.06.23-.26.11-.13.11-.13.11-.13a.18.18,0,0,1,0-.07l.05-.07.21-.27.05-.07a.18.18,0,0,1,0-.07l.09-.14a11.8,11.8,0,0,0,.7-1.18l.15-.31.08-.15.07-.16.13-.31.12-.32c.09-.21.15-.43.22-.65l0-.08s0,0,0-.08l0-.16,0-.17a.94.94,0,0,0,0-.16l.08-.34,0-.16,0-.17.06-.34c0-.11,0-.22,0-.34l0-.17s0-.05,0-.08v-.09l0-.34V58.05l0-.34c0-.06,0-.11,0-.17l0-.17,0-.34-.06-.33,0-.17v-.08l0-.09L728,56l0-.08a.19.19,0,0,0,0-.08l-.05-.17-.09-.33-.11-.32c0-.11-.07-.21-.11-.32l-.13-.32,0-.07,0-.08-.07-.16-.07-.15,0-.08,0-.08-.15-.3-.08-.15-.08-.15-.17-.3-.18-.28-.19-.29-.2-.28,0-.07-.05-.06-.11-.14-.1-.13-.05-.07,0,0,0,0-.22-.25-.11-.13-.12-.13-.23-.24-.25-.24a2.73,2.73,0,0,0-.25-.23l-.26-.23-.06,0-.07-.06-.13-.1-.13-.11-.14-.1-.28-.2-.14-.1-.14-.09-.29-.19-.29-.17-.15-.09-.07,0-.08,0-.3-.16-.08,0-.07,0-.16-.07-.15-.07-.16-.07-.32-.13-.16-.06-.16-.06-.32-.11-.33-.1-.16-.05-.09,0-.08,0c-.22,0-.44-.11-.67-.15l-.33-.06-.34,0c-.23,0-.46-.05-.68-.07l-.35,0h-.34a12.45,12.45,0,0,0-1.37.06l-.17,0h-.17l-.34,0h-.09l-.08,0-.17,0-.17,0h-.08l-.09,0-.33.09-.09,0-.08,0-.16,0-.17,0-.08,0-.08,0L713,48l-.08,0-.08,0-.16.06-.16.06-.08,0-.08,0-.32.14-.08,0-.07,0-.16.07c-.21.1-.41.22-.61.33L711,49l-.15.09-.14.09-.15.09-.29.19-.28.21-.14.1-.13.11-.27.22a11.39,11.39,0,0,1,4.85-2.66l.09,0,.08,0,.17,0,.17,0,.09,0H715l.34-.06.09,0h.09l.17,0a13,13,0,0,1,1.4-.11,12.59,12.59,0,0,1,2.8.32l.08,0,.09,0,.17,0,.34.09.33.11.17.06.17.06.32.13.17.07.16.07.16.07.08,0,.08,0,.32.15.07,0,.08.05.16.08.3.18.3.19.15.09.15.1.29.21.14.1.14.11.14.11.07.05.06.06.27.23.26.24.26.24.25.26.12.13a.69.69,0,0,1,.11.13l.24.27,0,0,0,0,.06.07.11.14.11.14.05.07,0,.07.21.29.2.3.19.29.17.31.09.16.08.15.16.32a.2.2,0,0,1,0,.08l0,.08.07.16.08.16,0,.08,0,.08.13.33a2.3,2.3,0,0,1,.12.34l.12.33.09.34,0,.17a.29.29,0,0,1,0,.09l0,.09.08.34,0,.09,0,.09,0,.17.06.35,0,.35,0,.18s0,.11,0,.17l0,.36v1.41l0,.35v.09a.28.28,0,0,1,0,.09l0,.17c0,.12,0,.24,0,.35l-.06.35,0,.18s0,.11,0,.17l-.08.34c0,.06,0,.12,0,.18l0,.17-.05.17a.19.19,0,0,0,0,.08l0,.08c-.08.23-.15.45-.24.67s-.08.22-.13.33l-.14.32-.08.16-.08.16-.16.31a12,12,0,0,1-.74,1.2A11.6,11.6,0,0,1,722.43,69l-.07,0-.08,0-.16.07-.16.08-.16.07-.32.13-.17.07-.16,0-.33.12-.34.1-.17,0-.16,0-.34.08-.18,0-.17,0-.17,0-.08,0h-.09l-.35,0-.17,0-.17,0-.35,0h-.35a1.93,1.93,0,0,1-.34,0Z"/><path class="cls-5" d="M711,58.87A5.87,5.87,0,0,0,712.62,63a5.59,5.59,0,0,0,.88.73,5.4,5.4,0,0,0,7.18-.89,5.55,5.55,0,0,0,.65-.88,6.33,6.33,0,0,0,.46-1l0-.12a.93.93,0,0,0,0-.13l0-.13a.79.79,0,0,0,0-.13l0-.14a.5.5,0,0,0,0-.13l0-.13a.59.59,0,0,1,0-.13,7.72,7.72,0,0,0,.09-1.07,5.63,5.63,0,0,0-.38-2.1,5.51,5.51,0,0,0-5-3.56,5.06,5.06,0,0,0-1.1.09,5.18,5.18,0,0,0-1.07.3,5.7,5.7,0,0,0-1.87,1.2,6,6,0,0,0-1.27,1.86,5,5,0,0,0-.34,1.08A5.35,5.35,0,0,0,711,58.87Zm-.34,0a7,7,0,0,1,.11-1.2,5.71,5.71,0,0,1,.33-1.16,6.16,6.16,0,0,1,1.28-2,6.25,6.25,0,0,1,2-1.42,6.22,6.22,0,0,1,4.84-.1,6.36,6.36,0,0,1,2.1,1.37,5.79,5.79,0,0,1,.81,1,6,6,0,0,1,.61,1.11,7.38,7.38,0,0,1,.38,1.21,6.84,6.84,0,0,1,.13,1.27,5.43,5.43,0,0,1-.14,1.27l0,.15,0,.15c0,.06,0,.11,0,.16l-.05.15a.88.88,0,0,0,0,.15l-.06.14-.06.15-.07.15a6.52,6.52,0,0,1-.62,1.09,6.14,6.14,0,0,1-.83.94,6.36,6.36,0,0,1-2.09,1.29l-.28.1-.3.08-.29.08-.3,0a7.06,7.06,0,0,1-1.21.1,6.05,6.05,0,0,1-1.2-.14,5.63,5.63,0,0,1-1.14-.37,6.05,6.05,0,0,1-1.06-.58,5.61,5.61,0,0,1-.92-.77,6.34,6.34,0,0,1-1.32-2A6.52,6.52,0,0,1,710.62,58.87Z"/><path class="cls-5" d="M787.42,70.23l.7,0,.34,0,.35,0,.17,0,.17,0,.34-.06.08,0,.09,0,.17,0,.16,0,.17,0,.33-.1.17,0,.16,0,.33-.11.32-.13.16-.06.16-.07.31-.14.16-.07.15-.08.16-.08.07,0,.08,0,.3-.17.07,0,.08,0,.14-.09.15-.09.14-.09.28-.2A.71.71,0,0,0,794,68l.14-.1.27-.21.27-.22.13-.11.12-.12.26-.23.24-.25.12-.12,0,0,0,0,0-.06.23-.26.11-.13.11-.13.11-.13.06-.07.05-.07.2-.27.05-.07,0-.07.1-.14c.26-.38.48-.78.7-1.18l.15-.31.07-.15a.77.77,0,0,0,.07-.16l.14-.31.12-.32c.08-.21.15-.43.22-.65l0-.08a.31.31,0,0,1,0-.08l0-.16.05-.17c0-.05,0-.11,0-.16l.07-.34c0-.05,0-.11,0-.16l0-.17.05-.34c0-.11,0-.22,0-.34l0-.17a.25.25,0,0,1,0-.08v-.09l0-.34V58.05l0-.34c0-.06,0-.11,0-.17l0-.17,0-.34-.06-.33,0-.17,0-.08,0-.09-.07-.33,0-.08a.31.31,0,0,1,0-.08l-.05-.17-.09-.33-.11-.32c0-.11-.07-.21-.12-.32l-.12-.32,0-.07a.59.59,0,0,0,0-.08l-.07-.16-.07-.15,0-.08,0-.08-.15-.3-.08-.15-.09-.15-.17-.3-.18-.28a2.9,2.9,0,0,0-.19-.29l-.19-.28,0-.07-.06-.06-.1-.14-.1-.13-.06-.07,0,0,0,0-.22-.25-.12-.13-.11-.13-.24-.24-.24-.24-.25-.23-.26-.23-.06,0-.07-.06-.13-.1-.14-.11-.13-.1-.28-.2-.14-.1-.14-.09-.29-.19-.29-.17-.15-.09-.08,0-.07,0-.31-.16-.07,0-.08,0-.15-.07-.16-.07-.16-.07-.31-.13-.16-.06-.16-.06-.33-.11-.32-.1-.17-.05-.08,0-.08,0-.67-.15-.34-.06-.34,0c-.22,0-.45-.05-.68-.07l-.34,0h-.34a12.74,12.74,0,0,0-1.38.06l-.17,0h-.17l-.34,0h-.08l-.09,0-.16,0-.17,0h-.09l-.08,0-.34.09-.08,0-.08,0-.17,0-.16,0-.09,0-.08,0-.32.11-.09,0-.08,0-.16.06-.16.06-.08,0-.08,0-.31.14-.08,0-.08,0-.15.07c-.21.1-.41.22-.61.33l-.15.09-.15.09-.15.09-.14.09-.29.19-.28.21-.14.1-.14.11-.27.22a11.37,11.37,0,0,1,4.86-2.66l.08,0,.09,0,.17,0,.17,0,.08,0h.09l.35-.06.08,0h.09l.17,0a13.38,13.38,0,0,1,1.41-.11,12.44,12.44,0,0,1,2.79.32l.09,0,.08,0,.17,0,.34.09.34.11.17.06.16.06.33.13.16.07.16.07.17.07.08,0,.08,0,.31.15.08,0,.08.05.15.08.31.18.3.19L794,49l.14.1.29.21.14.1.14.11.14.11.07.05.07.06.27.23.26.24.26.24.24.26.12.13.12.13.23.27,0,0,0,0,0,.07.11.14.11.14.06.07,0,.07.21.29c.07.1.13.2.19.3l.19.29.18.31.09.16.08.15.16.32,0,.08,0,.08.07.16.07.16s0,.05,0,.08l0,.08.13.33c.05.11.08.23.12.34s.08.22.11.33l.1.34,0,.17a.29.29,0,0,0,0,.09l0,.09.08.34,0,.09v.09l0,.17c0,.12,0,.23.06.35l.05.35,0,.18a.91.91,0,0,1,0,.17l0,.36v.35c0,.12,0,.23,0,.35v.71l0,.35v.09s0,.06,0,.09l0,.17c0,.12,0,.24,0,.35l-.06.35,0,.18a.85.85,0,0,0,0,.17l-.08.34a1.21,1.21,0,0,1,0,.18l0,.17,0,.17,0,.08,0,.08c-.07.23-.14.45-.23.67s-.09.22-.13.33l-.15.32c0,.06-.05.11-.07.16l-.08.16-.16.31a10.51,10.51,0,0,1-.75,1.2A11.57,11.57,0,0,1,792.82,69l-.08,0-.08,0-.16.07-.16.08-.16.07-.32.13-.16.07-.17,0-.33.12-.33.1-.17,0-.17,0-.34.08L790,70l-.17,0-.17,0-.09,0h-.08l-.35,0-.17,0-.18,0-.34,0h-.35a2,2,0,0,1-.35,0Z"/><path class="cls-5" d="M781.34,58.87A5.94,5.94,0,0,0,783,63a6,6,0,0,0,.87.73,5.78,5.78,0,0,0,1,.54,5.26,5.26,0,0,0,1.09.33,5.48,5.48,0,0,0,1.14.09,5.28,5.28,0,0,0,2.18-.51,5.43,5.43,0,0,0,1.77-1.34,5.49,5.49,0,0,0,.64-.88,6.39,6.39,0,0,0,.47-1l0-.12s0-.09,0-.13l0-.13,0-.13,0-.14,0-.13s0-.09,0-.13l0-.13a7.71,7.71,0,0,0,.08-1.07,4.79,4.79,0,0,0-.09-1.07,5.46,5.46,0,0,0-.29-1A5.76,5.76,0,0,0,791,55a5.48,5.48,0,0,0-3.88-1.74,5.2,5.2,0,0,0-1.11.09,4.92,4.92,0,0,0-1.06.3,5.81,5.81,0,0,0-3.49,4.14A6.1,6.1,0,0,0,781.34,58.87Zm-.33,0a7,7,0,0,1,.11-1.2,5.69,5.69,0,0,1,.32-1.16,6.19,6.19,0,0,1,1.29-2,6.1,6.1,0,0,1,2-1.42,6.25,6.25,0,0,1,4.85-.1,6.38,6.38,0,0,1,2.91,2.34,6.65,6.65,0,0,1,.61,1.11,6.5,6.5,0,0,1,.37,1.21,6.86,6.86,0,0,1,.14,1.27,6,6,0,0,1-.14,1.27s0,.1,0,.15l0,.15a.75.75,0,0,1,0,.16l-.05.15a.88.88,0,0,1,0,.15l-.06.14a.47.47,0,0,1-.06.15l-.06.15a5.93,5.93,0,0,1-.63,1.09,6.66,6.66,0,0,1-.82.94,6.57,6.57,0,0,1-2.09,1.29l-.29.1-.29.08-.3.08-.3,0a6.94,6.94,0,0,1-1.2.1,6,6,0,0,1-1.2-.14,5.72,5.72,0,0,1-1.15-.37,6,6,0,0,1-1-.58,5.61,5.61,0,0,1-.92-.77,6,6,0,0,1-1.32-2A6.12,6.12,0,0,1,781,58.87Z"/><path class="cls-5" d="M505.88,142.68c.23,0,.46,0,.69,0l.35,0,.34-.05.18,0,.17,0,.34-.06.08,0,.09,0,.16,0,.17,0,.17,0,.33-.09.17,0,.16-.06.33-.11.32-.12.16-.07.16-.07.31-.14.16-.07.15-.08.15-.08.08,0,.08,0,.3-.17.07,0a.18.18,0,0,0,.07-.05l.15-.09.15-.09.14-.09.28-.2a.71.71,0,0,0,.14-.1l.14-.1.27-.21.26-.22.14-.11.12-.12.25-.23.25-.24.12-.13,0,0,0,0,.06-.06.23-.26a.69.69,0,0,0,.11-.13l.11-.13.11-.13,0-.07.06-.07.2-.27,0-.07.05-.07.1-.14c.26-.38.48-.78.7-1.18l.15-.3.07-.16.07-.15.13-.32a3.05,3.05,0,0,0,.13-.32c.08-.21.15-.43.22-.64l0-.08,0-.09,0-.16,0-.17a1,1,0,0,0,.05-.16l.07-.33c0-.06,0-.12,0-.17l0-.17,0-.34c0-.11,0-.22,0-.33l0-.17a.28.28,0,0,0,0-.09v-.08l0-.34V130.5l0-.34a1,1,0,0,0,0-.17l0-.17-.05-.33c0-.12,0-.23,0-.34l0-.17,0-.08,0-.08-.08-.34v-.08l0-.08,0-.17-.1-.32-.1-.33-.12-.32-.12-.31,0-.08,0-.08-.07-.16-.07-.15,0-.08,0-.08-.16-.3-.07-.15-.09-.15-.17-.29-.18-.29-.19-.29-.2-.27-.05-.07a.18.18,0,0,0,0-.07l-.1-.14-.11-.13,0-.07,0,0,0,0-.23-.26-.11-.13-.12-.12-.23-.25-.25-.24-.24-.23-.26-.23-.07,0-.06,0-.14-.11-.13-.11-.14-.1-.27-.2-.14-.1-.15-.09-.28-.19-.3-.17-.14-.08-.08,0-.07,0-.31-.15-.07,0-.08,0-.16-.07-.15-.07-.16-.07-.31-.13-.16-.06-.16-.06-.33-.11-.33-.1-.16-.05-.08,0-.09,0c-.22,0-.44-.11-.66-.15l-.34-.06-.34,0-.68-.07-.34,0h-.35a12.67,12.67,0,0,0-1.37.06l-.17,0h-.17l-.34,0-.08,0h-.09l-.17,0-.17,0-.08,0-.08,0-.34.08-.08,0-.08,0-.17,0-.17,0-.08,0-.08,0-.33.11-.08,0-.08,0-.16.06-.16.07-.08,0-.08,0-.31.14-.08,0-.08,0-.15.07c-.21.1-.41.22-.62.33l-.14.09-.15.09-.15.09-.14.09-.29.2a2.83,2.83,0,0,0-.28.2l-.14.1-.14.11-.27.22a11.39,11.39,0,0,1,4.85-2.66l.09,0,.08,0,.18,0,.17,0,.08,0h.09l.35-.06.08,0h.09l.17,0a11.11,11.11,0,0,1,1.4-.1,12,12,0,0,1,2.8.31l.08,0,.09,0,.17,0,.34.1.34.11.16.05.17.06.33.13.16.07.16.07.16.07.08,0a.2.2,0,0,1,.08,0l.32.16.08,0,.08,0,.15.08.31.18.3.19.15.09.14.1.29.21.14.1.14.11.14.11.07.06.07.05.27.23.26.24c.08.08.17.16.25.25l.25.25.12.13.12.13.23.27,0,0,0,0,0,.07.11.13.11.14.06.07.05.08.2.28.2.3.19.3.18.3.09.16.08.15.16.32a.3.3,0,0,0,0,.08l0,.08.08.16.07.16a.2.2,0,0,0,0,.08l0,.09.13.33.12.33c0,.11.07.22.11.34l.1.34,0,.17,0,.08,0,.09.08.34v.09l0,.09,0,.17.06.35,0,.35,0,.18c0,.06,0,.12,0,.17l0,.36v.35c0,.12,0,.24,0,.35v.71l0,.35v.09a.28.28,0,0,0,0,.09l0,.18c0,.11,0,.23,0,.35l-.07.35,0,.17a1,1,0,0,1,0,.17l-.08.35s0,.11,0,.17l-.05.17,0,.17s0,.05,0,.08l0,.09c-.08.22-.15.44-.24.66s-.08.22-.13.33l-.14.32-.07.16-.08.16-.16.32a12.6,12.6,0,0,1-.75,1.2,11.62,11.62,0,0,1-4.21,3.64l-.08,0-.08,0-.16.08-.16.07-.16.07-.32.13-.16.07L510,142l-.33.11-.33.1-.17.05-.17.05-.34.08-.17,0-.17,0-.17,0-.09,0H508l-.34.05-.17,0-.18,0-.35,0-.34,0h-.7Z"/><path class="cls-5" d="M499.8,131.32a5.86,5.86,0,0,0,.43,2.23,5.72,5.72,0,0,0,1.24,1.91,5.52,5.52,0,0,0,.87.73,5.83,5.83,0,0,0,1,.55,5.92,5.92,0,0,0,1.09.32,6.09,6.09,0,0,0,1.13.1,5.34,5.34,0,0,0,2.19-.52,5.54,5.54,0,0,0,1.77-1.33,6.9,6.9,0,0,0,.64-.89,5.15,5.15,0,0,0,.46-1l.05-.13,0-.13,0-.13a.65.65,0,0,0,0-.13l0-.13,0-.13a.68.68,0,0,1,0-.14.51.51,0,0,0,0-.13,6.35,6.35,0,0,0,0-2.13,5.35,5.35,0,0,0-.29-1,5.72,5.72,0,0,0-1.14-1.81,5.47,5.47,0,0,0-1.76-1.26,5.53,5.53,0,0,0-2.13-.49,5.9,5.9,0,0,0-1.1.09,4.92,4.92,0,0,0-1.06.3,5.57,5.57,0,0,0-1.87,1.21,5.68,5.68,0,0,0-1.28,1.85,5.89,5.89,0,0,0-.34,1.08A5.35,5.35,0,0,0,499.8,131.32Zm-.33,0a6.22,6.22,0,0,1,.43-2.36,6.33,6.33,0,0,1,1.28-2.05,6.41,6.41,0,0,1,2-1.42,6.18,6.18,0,0,1,2.4-.54,6.28,6.28,0,0,1,4.55,1.81,6.83,6.83,0,0,1,.81,1,6.6,6.6,0,0,1,.6,1.11,5.76,5.76,0,0,1,.38,1.22,5.92,5.92,0,0,1,.13,1.26,5.42,5.42,0,0,1-.13,1.27s0,.1,0,.15l0,.16a.88.88,0,0,1-.05.15l0,.15a.88.88,0,0,1-.05.15l-.06.15-.06.14-.06.15a7.36,7.36,0,0,1-.63,1.09,6.66,6.66,0,0,1-.82.94,6.57,6.57,0,0,1-2.09,1.29l-.29.1-.29.09-.3.07-.3.06a6.11,6.11,0,0,1-1.21.09,6,6,0,0,1-1.19-.14,5.69,5.69,0,0,1-1.15-.36,6.69,6.69,0,0,1-1.05-.58,6.82,6.82,0,0,1-.92-.77,6.25,6.25,0,0,1-1.79-4.35Z"/><path class="cls-5" d="M576.27,142.68c.23,0,.46,0,.69,0l.35,0,.34-.05.17,0,.17,0,.34-.06.09,0,.08,0,.17,0,.17,0,.17,0,.33-.09.16,0,.17-.06L580,142l.33-.12.16-.07.15-.07.32-.14.15-.07.16-.08.15-.08.08,0,.07,0,.3-.17.08,0L582,141l.15-.09.14-.09.15-.09.28-.2.14-.1.13-.1.28-.21.26-.22.13-.11.13-.12.25-.23.24-.24.12-.13,0,0,0,0,.06-.06.23-.26.11-.13.11-.13.11-.13,0-.07.05-.07.21-.27.05-.07,0-.07.09-.14a11.8,11.8,0,0,0,.7-1.18l.15-.3.08-.16.06-.15.14-.32.12-.32c.09-.21.15-.43.22-.64l0-.08s0-.06,0-.09l0-.16,0-.17,0-.16.08-.33,0-.17,0-.17.06-.34c0-.11,0-.22,0-.33l0-.17s0-.06,0-.09v-.08l0-.34V130.5l0-.34s0-.11,0-.17l0-.17,0-.33-.06-.34,0-.17v-.08l0-.08-.08-.34,0-.08s0-.05,0-.08l-.05-.17-.09-.32-.11-.33c0-.1-.07-.21-.11-.32l-.13-.31,0-.08,0-.08-.07-.16-.07-.15,0-.08a.59.59,0,0,0,0-.08l-.15-.3-.08-.15-.08-.15-.17-.29-.19-.29-.18-.29-.2-.27,0-.07-.05-.07-.11-.14-.1-.13,0-.07,0,0,0,0-.22-.26-.11-.13-.12-.12-.23-.25L584,123a2.73,2.73,0,0,0-.25-.23l-.26-.23-.06,0-.07,0-.13-.11-.13-.11-.14-.1-.28-.2-.14-.1-.14-.09-.29-.19-.29-.17-.15-.08-.07,0-.08,0-.3-.15-.08,0-.08,0-.15-.07-.16-.07-.15-.07-.32-.13-.16-.06-.16-.06-.32-.11-.33-.1-.16-.05-.09,0-.08,0c-.22,0-.44-.11-.67-.15L578,120l-.34,0-.69-.07-.34,0h-.34a12.45,12.45,0,0,0-1.37.06l-.17,0h-.17l-.34,0-.09,0h-.08l-.17,0-.17,0-.08,0-.09,0-.33.08-.09,0-.08,0-.16,0-.17,0-.08,0-.08,0-.33.11-.08,0-.08,0-.16.06-.16.07-.08,0-.08,0-.32.14a.2.2,0,0,1-.08,0l-.07,0L571,121c-.21.1-.41.22-.61.33l-.15.09-.15.09-.14.09-.15.09-.29.2-.28.2-.14.1-.13.11-.27.22a11.33,11.33,0,0,1,4.85-2.66l.08,0,.09,0,.17,0,.17,0,.09,0h.08l.35-.06.09,0h.08l.18,0a10.85,10.85,0,0,1,1.4-.1,11.88,11.88,0,0,1,2.79.31l.09,0,.09,0,.17,0,.34.1.33.11.17.05.16.06.33.13.17.07.16.07.16.07.08,0,.08,0,.31.16.08,0a.2.2,0,0,1,.08,0l.16.08.3.18.3.19.15.09.15.1.29.21.14.1.14.11.14.11.07.06.06.05.27.23.26.24a3.07,3.07,0,0,1,.26.25l.24.25.13.13.11.13.24.27,0,0,0,0,.06.07.11.13.11.14,0,.07.05.08.21.28.2.3c.06.1.12.2.19.3l.17.3.09.16.08.15.16.32a.3.3,0,0,1,0,.08l0,.08.07.16.07.16,0,.08,0,.09.13.33a3.21,3.21,0,0,1,.12.33l.12.34.09.34,0,.17s0,0,0,.08l0,.09.08.34,0,.09,0,.09,0,.17.06.35,0,.35,0,.18c0,.06,0,.12,0,.17l0,.36v1.41l0,.35v.09a.28.28,0,0,1,0,.09l0,.18c0,.11,0,.23,0,.35l-.06.35,0,.17c0,.06,0,.11,0,.17l-.08.35a1.54,1.54,0,0,1,0,.17l0,.17,0,.17,0,.08,0,.09c-.08.22-.15.44-.24.66l-.13.33-.15.32a.77.77,0,0,1-.07.16l-.08.16-.16.32c-.23.41-.47.81-.74,1.2a11.57,11.57,0,0,1-4.22,3.64l-.07,0-.08,0-.16.08-.16.07-.16.07-.33.13-.16.07-.16.06-.33.11-.34.1-.17.05-.17.05-.34.08-.17,0-.17,0-.17,0-.08,0h-.09l-.35.05-.17,0-.17,0-.35,0-.35,0h-.69Z"/><path class="cls-5" d="M570.19,131.32a5.85,5.85,0,0,0,.42,2.23,6,6,0,0,0,1.24,1.91,5.59,5.59,0,0,0,.88.73,5.4,5.4,0,0,0,1,.55,6,6,0,0,0,1.1.32,6.09,6.09,0,0,0,1.13.1,5.34,5.34,0,0,0,2.19-.52,5.61,5.61,0,0,0,1.76-1.33,7,7,0,0,0,.65-.89,5.84,5.84,0,0,0,.46-1l0-.13a.65.65,0,0,0,0-.13l0-.13,0-.13,0-.13,0-.13,0-.14a.69.69,0,0,1,0-.13,9.45,9.45,0,0,0,.09-1.07,5.44,5.44,0,0,0-.1-1.06,5.61,5.61,0,0,0-3.18-4.11,5.57,5.57,0,0,0-2.13-.49,5.77,5.77,0,0,0-1.1.09,5,5,0,0,0-1.07.3,5.57,5.57,0,0,0-1.87,1.21,5.81,5.81,0,0,0-1.27,1.85,5.21,5.21,0,0,0-.34,1.08A5.35,5.35,0,0,0,570.19,131.32Zm-.34,0a6.78,6.78,0,0,1,.43-2.36,6.19,6.19,0,0,1,1.29-2.05,6.29,6.29,0,0,1,2-1.42A6.18,6.18,0,0,1,576,125a6.28,6.28,0,0,1,4.54,1.81,6.83,6.83,0,0,1,.81,1,6.65,6.65,0,0,1,.61,1.11,7.2,7.2,0,0,1,.38,1.22,6.65,6.65,0,0,1,.13,1.26,5.43,5.43,0,0,1-.14,1.27.83.83,0,0,1,0,.15l0,.16s0,.1,0,.15l0,.15-.06.15,0,.15-.06.14-.07.15a6.52,6.52,0,0,1-.62,1.09,6.73,6.73,0,0,1-.83.94,6.47,6.47,0,0,1-2.09,1.29l-.29.1-.29.09-.29.07-.3.06a6.17,6.17,0,0,1-1.21.09,6.05,6.05,0,0,1-1.2-.14,5.9,5.9,0,0,1-1.15-.36,7.17,7.17,0,0,1-1.05-.58,6.82,6.82,0,0,1-.92-.77,6.39,6.39,0,0,1-1.32-2A6.28,6.28,0,0,1,569.85,131.32Z"/><path class="cls-5" d="M646.65,142.68c.23,0,.47,0,.7,0l.34,0,.34-.05.18,0,.17,0,.34-.06.08,0,.09,0,.17,0,.16,0,.17,0,.33-.09.17,0,.16-.06.33-.11.32-.12.16-.07.16-.07.31-.14.16-.07.15-.08.16-.08.07,0,.08,0,.3-.17.07,0,.08-.05.14-.09.15-.09.14-.09.28-.2a.71.71,0,0,0,.14-.1l.14-.1.27-.21.27-.22.13-.11.12-.12.25-.23.25-.24.12-.13,0,0,0,0,0-.06.23-.26a.69.69,0,0,0,.11-.13l.11-.13.11-.13.06-.07.05-.07.2-.27.05-.07,0-.07.1-.14c.26-.38.48-.78.7-1.18l.15-.3.07-.16a1,1,0,0,0,.07-.15l.14-.32.12-.32c.08-.21.15-.43.22-.64l0-.08,0-.09,0-.16.05-.17,0-.16.07-.33c0-.06,0-.12,0-.17l0-.17.05-.34c0-.11,0-.22,0-.33l0-.17a.28.28,0,0,1,0-.09v-.08l0-.34V130.5l0-.34s0-.11,0-.17l0-.17,0-.33-.06-.34,0-.17,0-.08,0-.08-.07-.34,0-.08a.24.24,0,0,1,0-.08l-.05-.17-.09-.32-.11-.33c0-.1-.07-.21-.12-.32l-.12-.31,0-.08a.3.3,0,0,1,0-.08l-.07-.16-.07-.15,0-.08a.2.2,0,0,1,0-.08l-.16-.3-.07-.15-.09-.15-.17-.29-.18-.29-.19-.29-.19-.27,0-.07-.06-.07-.1-.14-.11-.13-.05-.07,0,0,0,0-.23-.26-.11-.13-.11-.12-.24-.25-.24-.24-.25-.23-.26-.23-.07,0-.06,0-.14-.11-.13-.11-.13-.1-.28-.2-.14-.1-.14-.09-.29-.19-.3-.17-.14-.08-.08,0-.07,0-.31-.15-.07,0-.08,0-.16-.07-.15-.07-.16-.07-.31-.13-.16-.06-.16-.06-.33-.11-.32-.1-.17-.05-.08,0-.08,0-.67-.15-.34-.06-.34,0-.68-.07-.34,0h-.34a12.74,12.74,0,0,0-1.38.06l-.17,0H645l-.34,0-.08,0h-.09l-.17,0-.16,0-.09,0-.08,0-.34.08-.08,0-.08,0-.17,0-.16,0-.09,0-.08,0-.33.11-.08,0-.08,0-.16.06-.16.07-.08,0-.08,0-.31.14-.08,0-.08,0-.15.07c-.21.1-.41.22-.61.33l-.15.09-.15.09-.15.09-.14.09-.29.2a2.83,2.83,0,0,0-.28.2l-.14.1-.14.11-.27.22a11.37,11.37,0,0,1,4.86-2.66l.08,0,.09,0,.17,0,.17,0,.08,0h.09l.35-.06.08,0h.09l.17,0a11.14,11.14,0,0,1,1.41-.1,12,12,0,0,1,2.79.31l.09,0,.08,0,.17,0,.34.1.34.11.16.05.17.06.33.13.16.07.16.07.16.07.09,0,.07,0,.32.16.08,0,.08,0,.15.08.31.18.3.19.15.09.14.1.29.21.14.1.14.11.14.11.07.06.07.05.27.23.26.24.26.25.24.25.12.13.12.13.23.27,0,0,0,0,0,.07.11.13.11.14.06.07.05.08.2.28a2.61,2.61,0,0,1,.2.3l.19.3.18.3.09.16.08.15.16.32s0,0,0,.08l0,.08.08.16.07.16a.2.2,0,0,0,0,.08l0,.09.13.33.12.33c0,.11.07.22.11.34l.1.34,0,.17a.31.31,0,0,0,0,.08l0,.09.08.34,0,.09v.09l0,.17c0,.12,0,.23.06.35l0,.35,0,.18a1,1,0,0,1,0,.17l0,.36v.35c0,.12,0,.24,0,.35v.71l0,.35v.09s0,.06,0,.09l0,.18c0,.11,0,.23,0,.35l-.06.35,0,.17,0,.17L658,134s0,.11,0,.17l-.05.17,0,.17a.24.24,0,0,1,0,.08l0,.09a5.84,5.84,0,0,1-.24.66c0,.11-.08.22-.13.33l-.14.32c0,.06-.05.11-.07.16l-.08.16-.16.32a12.6,12.6,0,0,1-.75,1.2,11.54,11.54,0,0,1-4.21,3.64l-.08,0-.08,0-.16.08-.16.07-.16.07-.32.13-.16.07-.17.06-.33.11-.33.1-.17.05-.17.05-.34.08-.17,0-.17,0-.17,0-.09,0h-.09l-.34.05-.17,0-.18,0-.34,0-.35,0h-.7Z"/><path class="cls-5" d="M640.57,131.32a5.86,5.86,0,0,0,.43,2.23,5.72,5.72,0,0,0,1.24,1.91,5.52,5.52,0,0,0,.87.73,5.83,5.83,0,0,0,1,.55,5.92,5.92,0,0,0,1.09.32,6.24,6.24,0,0,0,1.13.1,5.3,5.3,0,0,0,2.19-.52,5.54,5.54,0,0,0,1.77-1.33,6.06,6.06,0,0,0,.64-.89,5.88,5.88,0,0,0,.47-1l0-.13,0-.13,0-.13,0-.13,0-.13,0-.13s0-.09,0-.14a.51.51,0,0,0,0-.13,6.35,6.35,0,0,0,.09-1.07,4.75,4.75,0,0,0-.09-1.06,5.35,5.35,0,0,0-.29-1,5.72,5.72,0,0,0-1.14-1.81,5.26,5.26,0,0,0-1.76-1.26,5.53,5.53,0,0,0-2.13-.49,5.9,5.9,0,0,0-1.1.09,4.92,4.92,0,0,0-1.06.3,5.57,5.57,0,0,0-1.87,1.21,5.68,5.68,0,0,0-1.28,1.85,6.77,6.77,0,0,0-.34,1.08A5.35,5.35,0,0,0,640.57,131.32Zm-.33,0a6.78,6.78,0,0,1,.43-2.36,6.21,6.21,0,0,1,5.67-4,6.28,6.28,0,0,1,4.55,1.81,6.83,6.83,0,0,1,.81,1,6,6,0,0,1,.6,1.11,5.76,5.76,0,0,1,.38,1.22,6.66,6.66,0,0,1,.14,1.26,6,6,0,0,1-.14,1.27s0,.1,0,.15l0,.16a.88.88,0,0,1-.05.15l0,.15a.88.88,0,0,1,0,.15l-.06.15a.84.84,0,0,1-.06.14l-.06.15a5.93,5.93,0,0,1-.63,1.09,6.66,6.66,0,0,1-.82.94,6.57,6.57,0,0,1-2.09,1.29l-.29.1-.29.09-.3.07-.3.06a6.11,6.11,0,0,1-1.21.09,6,6,0,0,1-1.19-.14A5.69,5.69,0,0,1,644,137a6.69,6.69,0,0,1-1-.58,6.82,6.82,0,0,1-.92-.77,6.25,6.25,0,0,1-1.79-4.35Z"/><path class="cls-5" d="M717,142.68c.23,0,.46,0,.69,0l.35,0,.34-.05.17,0,.17,0,.34-.06.09,0,.08,0,.17,0,.17,0,.17,0,.33-.09.16,0,.17-.06.32-.11.33-.12.16-.07.15-.07.32-.14.15-.07.16-.08.15-.08.08,0,.07,0,.3-.17.08,0,.07-.05.15-.09.14-.09.15-.09.28-.2.14-.1.14-.1.27-.21.26-.22.13-.11.13-.12.25-.23.24-.24.12-.13,0,0,0,0,.06-.06.23-.26.11-.13.11-.13.11-.13,0-.07.05-.07.21-.27.05-.07,0-.07.09-.14a11.8,11.8,0,0,0,.7-1.18l.15-.3.08-.16a1,1,0,0,1,.07-.15l.13-.32.12-.32c.09-.21.15-.43.22-.64l0-.08s0-.06,0-.09l0-.16,0-.17a.94.94,0,0,0,0-.16l.08-.33,0-.17,0-.17.06-.34c0-.11,0-.22,0-.33l0-.17s0-.06,0-.09v-.08l0-.34V130.5l0-.34s0-.11,0-.17l0-.17,0-.33-.06-.34,0-.17v-.08l0-.08-.08-.34,0-.08a.24.24,0,0,0,0-.08l-.05-.17-.09-.32-.11-.33c0-.1-.07-.21-.11-.32l-.13-.31,0-.08,0-.08-.07-.16-.07-.15,0-.08a.59.59,0,0,0,0-.08l-.15-.3-.08-.15-.08-.15-.17-.29-.18-.29-.19-.29-.2-.27,0-.07-.05-.07-.11-.14-.1-.13-.05-.07,0,0,0,0-.22-.26-.11-.13-.12-.12-.23-.25-.25-.24a2.73,2.73,0,0,0-.25-.23l-.26-.23-.06,0-.07,0-.13-.11-.13-.11-.14-.1-.28-.2-.14-.1-.14-.09-.29-.19-.29-.17-.15-.08-.07,0-.08,0L722,121l-.08,0-.07,0-.16-.07-.15-.07-.16-.07-.32-.13-.16-.06-.16-.06-.32-.11-.33-.1-.16-.05-.09,0-.08,0c-.22,0-.44-.11-.67-.15l-.33-.06-.34,0-.68-.07-.35,0h-.34a12.45,12.45,0,0,0-1.37.06l-.17,0h-.17l-.34,0-.09,0h-.08l-.17,0-.17,0-.08,0-.09,0-.33.08-.09,0-.08,0-.16,0-.17,0-.08,0-.08,0-.33.11-.08,0-.08,0-.16.06-.16.07-.08,0-.08,0-.32.14a.2.2,0,0,1-.08,0l-.07,0-.16.07c-.21.1-.41.22-.61.33l-.15.09-.15.09-.14.09-.15.09-.29.2-.28.2-.14.1-.13.11-.27.22a11.39,11.39,0,0,1,4.85-2.66l.09,0,.08,0,.17,0,.17,0,.09,0H715l.34-.06.09,0h.09l.17,0a10.85,10.85,0,0,1,1.4-.1,12,12,0,0,1,2.8.31l.08,0,.09,0,.17,0,.34.1.33.11.17.05.17.06.32.13.17.07.16.07.16.07.08,0,.08,0,.32.16.07,0a.2.2,0,0,1,.08,0l.16.08.3.18.3.19.15.09.15.1.29.21.14.1.14.11.14.11.07.06.06.05.27.23.26.24a3.07,3.07,0,0,1,.26.25l.25.25.12.13.11.13.24.27,0,0,0,0,.06.07.11.13.11.14.05.07,0,.08.21.28.2.3.19.3.17.3.09.16.08.15.16.32a.3.3,0,0,1,0,.08l0,.08.07.16.08.16,0,.08,0,.09.13.33a1.85,1.85,0,0,1,.12.33l.12.34.09.34,0,.17a.19.19,0,0,1,0,.08l0,.09.08.34,0,.09,0,.09,0,.17.06.35,0,.35,0,.18c0,.06,0,.12,0,.17l0,.36v1.41l0,.35v.09a.28.28,0,0,1,0,.09l0,.18c0,.11,0,.23,0,.35l-.06.35,0,.17c0,.06,0,.11,0,.17l-.08.35s0,.11,0,.17l0,.17-.05.17a.24.24,0,0,0,0,.08l0,.09c-.08.22-.15.44-.24.66s-.08.22-.13.33l-.14.32-.08.16-.08.16-.16.32c-.23.41-.47.81-.74,1.2a11.57,11.57,0,0,1-4.22,3.64l-.07,0-.08,0-.16.08-.16.07-.16.07-.32.13-.17.07-.16.06-.33.11-.34.1-.17.05-.16.05-.34.08-.18,0-.17,0-.17,0-.08,0h-.09l-.35.05-.17,0-.17,0-.35,0-.35,0H717Z"/><path class="cls-5" d="M711,131.32a5.87,5.87,0,0,0,1.66,4.14,5.59,5.59,0,0,0,.88.73,5.4,5.4,0,0,0,1,.55,6,6,0,0,0,1.1.32,6.09,6.09,0,0,0,1.13.1,5.34,5.34,0,0,0,2.19-.52,5.5,5.5,0,0,0,1.76-1.33,6.13,6.13,0,0,0,.65-.89,5.84,5.84,0,0,0,.46-1l0-.13a.65.65,0,0,0,0-.13l0-.13a.61.61,0,0,0,0-.13l0-.13a.79.79,0,0,0,0-.13l0-.14a.69.69,0,0,1,0-.13,7.6,7.6,0,0,0,.09-1.07,6.32,6.32,0,0,0-.09-1.06,6.16,6.16,0,0,0-.29-1,5.57,5.57,0,0,0-1.15-1.81,5.33,5.33,0,0,0-1.75-1.26,5.57,5.57,0,0,0-2.13-.49,5.77,5.77,0,0,0-1.1.09,5.18,5.18,0,0,0-1.07.3,5.57,5.57,0,0,0-1.87,1.21,5.81,5.81,0,0,0-1.27,1.85,5.21,5.21,0,0,0-.34,1.08A5.35,5.35,0,0,0,711,131.32Zm-.34,0a7,7,0,0,1,.11-1.2,6.1,6.1,0,0,1,.33-1.16,6.16,6.16,0,0,1,1.28-2.05,6.41,6.41,0,0,1,2-1.42,6.18,6.18,0,0,1,2.4-.54,6.28,6.28,0,0,1,4.54,1.81,6.22,6.22,0,0,1,.81,1,6,6,0,0,1,.61,1.11,7.2,7.2,0,0,1,.38,1.22,6.65,6.65,0,0,1,.13,1.26,5.43,5.43,0,0,1-.14,1.27l0,.15,0,.16s0,.1,0,.15l-.05.15a.88.88,0,0,0,0,.15l-.06.15-.06.14-.07.15a6.52,6.52,0,0,1-.62,1.09,6.14,6.14,0,0,1-.83.94,6.36,6.36,0,0,1-2.09,1.29l-.28.1-.3.09-.29.07-.3.06a6.17,6.17,0,0,1-1.21.09,6.05,6.05,0,0,1-1.2-.14,5.6,5.6,0,0,1-1.14-.36,6.15,6.15,0,0,1-2-1.35,6.39,6.39,0,0,1-1.32-2A6.48,6.48,0,0,1,710.62,131.32Z"/><path class="cls-5" d="M787.42,142.68c.23,0,.47,0,.7,0l.34,0,.35-.05.17,0,.17,0,.34-.06.08,0,.09,0,.17,0,.16,0,.17,0,.33-.09.17,0,.16-.06.33-.11.32-.12.16-.07.16-.07.31-.14.16-.07.15-.08.16-.08.07,0,.08,0,.3-.17.07,0,.08-.05.14-.09.15-.09.14-.09.28-.2a.71.71,0,0,0,.14-.1l.14-.1.27-.21.27-.22.13-.11.12-.12.26-.23.24-.24.12-.13,0,0,0,0,0-.06.23-.26a.69.69,0,0,0,.11-.13l.11-.13.11-.13.06-.07.05-.07.2-.27.05-.07,0-.07.1-.14c.26-.38.48-.78.7-1.18l.15-.3.07-.16a1,1,0,0,0,.07-.15l.14-.32.12-.32c.08-.21.15-.43.22-.64l0-.08a.29.29,0,0,1,0-.09l0-.16.05-.17,0-.16.07-.33c0-.06,0-.12,0-.17l0-.17.05-.34c0-.11,0-.22,0-.33l0-.17a.28.28,0,0,1,0-.09v-.08l0-.34V130.5l0-.34s0-.11,0-.17l0-.17,0-.33-.06-.34,0-.17,0-.08,0-.08-.07-.34,0-.08a.24.24,0,0,1,0-.08l-.05-.17-.09-.32-.11-.33c0-.1-.07-.21-.12-.32l-.12-.31,0-.08s0-.05,0-.08l-.07-.16-.07-.15,0-.08a.59.59,0,0,1,0-.08l-.15-.3-.08-.15-.09-.15-.17-.29-.18-.29-.19-.29-.19-.27,0-.07-.06-.07-.1-.14-.1-.13-.06-.07,0,0,0,0-.22-.26-.12-.13-.11-.12-.24-.25-.24-.24-.25-.23-.26-.23-.06,0-.07,0-.13-.11-.14-.11-.13-.1-.28-.2-.14-.1-.14-.09-.29-.19-.29-.17-.15-.08-.08,0-.07,0-.31-.15-.07,0-.08,0-.15-.07-.16-.07-.16-.07-.31-.13-.16-.06-.16-.06-.33-.11-.32-.1-.17-.05-.08,0-.08,0-.67-.15-.34-.06-.34,0-.68-.07-.34,0h-.34a12.74,12.74,0,0,0-1.38.06l-.17,0h-.17l-.34,0-.08,0h-.09l-.16,0-.17,0-.09,0-.08,0-.34.08-.08,0-.08,0-.17,0-.16,0-.09,0-.08,0-.32.11-.09,0-.08,0-.16.06-.16.07-.08,0-.08,0-.31.14-.08,0-.08,0-.15.07c-.21.1-.41.22-.61.33l-.15.09-.15.09-.15.09-.14.09-.29.2a2.83,2.83,0,0,0-.28.2l-.14.1-.14.11-.27.22a11.37,11.37,0,0,1,4.86-2.66l.08,0,.09,0,.17,0,.17,0,.08,0h.09l.35-.06.08,0h.09l.17,0a11.14,11.14,0,0,1,1.41-.1,11.88,11.88,0,0,1,2.79.31l.09,0,.08,0,.17,0,.34.1.34.11.17.05.16.06.33.13.16.07.16.07.17.07.08,0,.08,0,.31.16.08,0,.08,0,.15.08.31.18.3.19.15.09.14.1.29.21.14.1.14.11.14.11.07.06a.18.18,0,0,1,.07.05l.27.23.26.24.26.25.24.25.12.13.12.13.23.27,0,0,0,0,0,.07.11.13.11.14.06.07,0,.08.21.28c.07.1.13.2.19.3s.13.2.19.3l.18.3.09.16.08.15.16.32s0,0,0,.08l0,.08.07.16.07.16a.59.59,0,0,0,0,.08l0,.09.13.33a3.21,3.21,0,0,1,.12.33,3.38,3.38,0,0,1,.11.34l.1.34,0,.17a.31.31,0,0,0,0,.08l0,.09.08.34,0,.09v.09l0,.17c0,.12,0,.23.06.35l.05.35,0,.18a1,1,0,0,1,0,.17l0,.36v.35c0,.12,0,.24,0,.35v.71l0,.35v.09s0,.06,0,.09l0,.18c0,.11,0,.23,0,.35l-.06.35,0,.17a1,1,0,0,0,0,.17l-.08.35a1.54,1.54,0,0,1,0,.17l0,.17,0,.17,0,.08,0,.09c-.07.22-.14.44-.23.66s-.09.22-.13.33l-.15.32c0,.06-.05.11-.07.16l-.08.16-.16.32a12.6,12.6,0,0,1-.75,1.2,11.54,11.54,0,0,1-4.21,3.64l-.08,0-.08,0-.16.08-.16.07-.16.07-.32.13-.16.07-.17.06-.33.11-.33.1-.17.05-.17.05-.34.08-.17,0-.17,0-.17,0-.09,0h-.08l-.35.05-.17,0-.18,0-.34,0-.35,0h-.7Z"/><path class="cls-5" d="M781.34,131.32a5.94,5.94,0,0,0,1.67,4.14,6,6,0,0,0,.87.73,5.83,5.83,0,0,0,1,.55,5.92,5.92,0,0,0,1.09.32,6.27,6.27,0,0,0,1.14.1,5.29,5.29,0,0,0,2.18-.52,5.54,5.54,0,0,0,1.77-1.33,6.06,6.06,0,0,0,.64-.89,5.88,5.88,0,0,0,.47-1l0-.13,0-.13,0-.13,0-.13,0-.13,0-.13s0-.09,0-.14l0-.13a7.59,7.59,0,0,0,.08-1.07,4.75,4.75,0,0,0-.09-1.06,5.35,5.35,0,0,0-.29-1,5.72,5.72,0,0,0-1.14-1.81,5.26,5.26,0,0,0-1.76-1.26,5.52,5.52,0,0,0-2.12-.49,5.94,5.94,0,0,0-1.11.09,4.92,4.92,0,0,0-1.06.3,5.57,5.57,0,0,0-1.87,1.21,5.51,5.51,0,0,0-1.27,1.85,5.92,5.92,0,0,0-.35,1.08A6.1,6.1,0,0,0,781.34,131.32Zm-.33,0a7,7,0,0,1,.11-1.2,6.06,6.06,0,0,1,.32-1.16,6.21,6.21,0,0,1,5.68-4,6.42,6.42,0,0,1,2.44.44,6.36,6.36,0,0,1,2.1,1.37,6.83,6.83,0,0,1,.81,1,6.65,6.65,0,0,1,.61,1.11,6.37,6.37,0,0,1,.37,1.22,6.66,6.66,0,0,1,.14,1.26,6,6,0,0,1-.14,1.27s0,.1,0,.15l0,.16a.88.88,0,0,1,0,.15l-.05.15a.88.88,0,0,1,0,.15l-.06.15a.42.42,0,0,1-.06.14l-.06.15a5.93,5.93,0,0,1-.63,1.09,6.66,6.66,0,0,1-.82.94,6.57,6.57,0,0,1-2.09,1.29l-.29.1-.29.09-.3.07-.3.06a6.07,6.07,0,0,1-1.2.09,6,6,0,0,1-1.2-.14,5.69,5.69,0,0,1-1.15-.36,6.69,6.69,0,0,1-1-.58,6.82,6.82,0,0,1-.92-.77,6.25,6.25,0,0,1-1.79-4.35Z"/><polygon class="cls-6" points="202.26 102.56 102.18 -110.91 -129.26 -110.91 -29.74 102.53 -143.1 102.56 -1.06 407.18 229.06 407.18 86.25 102.56 202.26 102.56"/><rect class="cls-7" x="428.72" y="553.79" width="2.81" height="12.97" transform="translate(106.22 1187.96) rotate(-115.19)"/><rect class="cls-8" x="428.72" y="553.79" width="2.81" height="12.97" transform="translate(1057.82 884.18) rotate(154.81)"/><rect class="cls-9" x="396.15" y="484.54" width="2.81" height="12.97" transform="translate(122.44 1059.77) rotate(-115.19)"/><rect class="cls-10" x="396.15" y="484.54" width="2.81" height="12.97" transform="translate(966.3 766.14) rotate(154.81)"/><rect class="cls-11" x="366.46" y="526.26" width="2.81" height="12.97" transform="translate(42.37 1092.38) rotate(-115.19)"/><rect class="cls-12" x="366.46" y="526.26" width="2.81" height="12.97" transform="translate(927.5 858.24) rotate(154.81)"/><rect class="cls-13" x="336.02" y="540.58" width="2.81" height="12.97" transform="translate(-13.97 1085.25) rotate(-115.19)"/><rect class="cls-14" x="336.02" y="540.58" width="2.81" height="12.97" transform="translate(875.62 898.46) rotate(154.81)"/><rect class="cls-15" x="492.78" y="382.48" width="2.81" height="12.97" transform="translate(352.57 1001.71) rotate(-115.19)"/><rect class="cls-16" x="492.78" y="382.48" width="2.81" height="12.97" transform="translate(1106.93 530.59) rotate(154.81)"/><rect class="cls-17" x="447.83" y="371.56" width="2.81" height="12.97" transform="translate(298.37 945.46) rotate(-115.19)"/><rect class="cls-18" x="447.83" y="371.56" width="2.81" height="12.97" transform="translate(1016.66 528.91) rotate(154.81)"/><rect class="cls-19" x="507.42" y="483.66" width="2.81" height="12.97" transform="translate(281.88 1159.21) rotate(-115.19)"/><rect class="cls-20" x="507.42" y="483.66" width="2.81" height="12.97" transform="translate(1177.89 717.1) rotate(154.81)"/><path class="cls-21" d="M386.85,496.06a11.83,11.83,0,1,1,15.74,5.67A11.84,11.84,0,0,1,386.85,496.06Zm20.57-9.67a10.91,10.91,0,1,0-5.22,14.51A10.91,10.91,0,0,0,407.42,486.39Z"/><path class="cls-22" d="M376.12,501.22l0-.09a23.68,23.68,0,0,1-1.77-5.29l.9-.19a23.08,23.08,0,0,0,1.7,5.09l0,.08Zm5.52,7.42.62-.68a23.07,23.07,0,0,0,4.37,3.1l-.44.8A23.41,23.41,0,0,1,381.64,508.64Zm-7.4-22.05a23.68,23.68,0,0,1,1.68-5.32l.84.38a22.85,22.85,0,0,0-1.62,5.11Zm20.79,28,.09-.92a23,23,0,0,0,5.37-.05l.11.91A23.58,23.58,0,0,1,395,514.63Zm-13.74-40.9a24,24,0,0,1,4.49-3.31l.45.8a22.85,22.85,0,0,0-4.31,3.18Zm27.62,37.08a22.9,22.9,0,0,0,4.31-3.19l.63.67a24,24,0,0,1-4.48,3.32Zm-14.24-42.42-.12-.91a24.22,24.22,0,0,1,5.58-.05l-.1.92A22.88,22.88,0,0,0,394.67,468.39Zm23.7,32a22.8,22.8,0,0,0,1.6-5.11l.91.17a24.18,24.18,0,0,1-1.67,5.32ZM408.52,471l.44-.81a24.6,24.6,0,0,1,4.54,3.23l-.62.69A22.74,22.74,0,0,0,408.52,471Zm11.37,15.33a23.63,23.63,0,0,0-1.69-5l.57-.31.25-.09h0a23.8,23.8,0,0,1,1.77,5.24Z"/><rect class="cls-23" x="251.65" y="552.51" width="2.81" height="12.97" transform="translate(-145.07 1025.92) rotate(-115.19)"/><rect class="cls-24" x="251.65" y="552.51" width="2.81" height="12.97" transform="translate(719.97 957.12) rotate(154.81)"/><path class="cls-25" d="M242.35,564a11.83,11.83,0,1,1,15.74,5.67A11.84,11.84,0,0,1,242.35,564Zm20.57-9.68a10.9,10.9,0,1,0-5.22,14.52A10.92,10.92,0,0,0,262.92,554.35Z"/><rect class="cls-26" x="416.85" y="245.24" width="2.81" height="12.97" transform="translate(368.5 737.35) rotate(-115.19)"/><rect class="cls-27" x="416.85" y="245.24" width="2.81" height="12.97" transform="translate(903.88 301.48) rotate(154.81)"/><path class="cls-28" d="M407.56,256.76a11.83,11.83,0,1,1,15.73,5.67A11.84,11.84,0,0,1,407.56,256.76Zm20.57-9.68a10.91,10.91,0,1,0-5.23,14.52A10.92,10.92,0,0,0,428.13,247.08Z"/><path class="cls-29" d="M396.79,261.83a23.35,23.35,0,0,1-1.77-5.29l.9-.19a22.57,22.57,0,0,0,1.7,5.09l0,.08-.83.39Zm5.56,7.51.62-.68a22,22,0,0,0,4.37,3.09l-.44.81A23.41,23.41,0,0,1,402.35,269.34Zm-7.4-22a23.68,23.68,0,0,1,1.68-5.32l.83.38a23.35,23.35,0,0,0-1.61,5.11Zm20.78,28,.1-.92a22.88,22.88,0,0,0,5.36-.06l.12.92A23.67,23.67,0,0,1,415.73,275.33ZM402,234.43a23.92,23.92,0,0,1,4.48-3.31l.46.8a22.85,22.85,0,0,0-4.31,3.18Zm27.62,37.08a22.52,22.52,0,0,0,4.3-3.19l.64.67a24,24,0,0,1-4.48,3.32Zm-14.25-42.42-.11-.91a23.66,23.66,0,0,1,5.58-.05l-.11.92A22.88,22.88,0,0,0,415.37,229.09Zm23.7,32a22.48,22.48,0,0,0,1.61-5.11l.9.17a23.65,23.65,0,0,1-1.67,5.32Zm-9.85-29.34.44-.81a23.89,23.89,0,0,1,4.55,3.23l-.62.68A23.2,23.2,0,0,0,429.22,231.72Zm11.37,15.33a22.56,22.56,0,0,0-1.69-5l.57-.31.26-.1h0a24.12,24.12,0,0,1,1.76,5.24Z"/><rect class="cls-30" x="141.16" y="505.54" width="2.81" height="12.97" transform="translate(-260.08 858.97) rotate(-115.19)"/><rect class="cls-31" x="141.16" y="505.54" width="2.81" height="12.97" transform="translate(489.51 914.67) rotate(154.81)"/><path class="cls-32" d="M131.86,517.06a11.83,11.83,0,1,1,15.74,5.67A11.85,11.85,0,0,1,131.86,517.06Zm20.57-9.68a10.9,10.9,0,1,0-5.22,14.51A10.92,10.92,0,0,0,152.43,507.38Z"/><path class="cls-33" d="M121.13,522.21l0-.09a23.77,23.77,0,0,1-1.77-5.28l.9-.19a23.17,23.17,0,0,0,1.7,5.08l0,.09Zm5.52,7.43.62-.68a23,23,0,0,0,4.37,3.09l-.44.81A23.41,23.41,0,0,1,126.65,529.64Zm-7.4-22.06a24.29,24.29,0,0,1,1.68-5.31l.84.37a23.1,23.1,0,0,0-1.62,5.12Zm20.79,28,.1-.91a22.88,22.88,0,0,0,5.36-.06l.11.91A23.58,23.58,0,0,1,140,535.62ZM126.3,494.73a23.87,23.87,0,0,1,4.49-3.31l.45.8a23.18,23.18,0,0,0-4.31,3.18Zm27.63,37.08a23.21,23.21,0,0,0,4.3-3.2l.63.67a23.22,23.22,0,0,1-4.48,3.32Zm-14.25-42.42-.12-.91a23.15,23.15,0,0,1,5.58-.05l-.1.91A22.88,22.88,0,0,0,139.68,489.39Zm23.7,32a23,23,0,0,0,1.6-5.12l.91.18a24.26,24.26,0,0,1-1.67,5.31ZM153.53,492l.44-.81a23.69,23.69,0,0,1,4.54,3.23l-.62.68A22.69,22.69,0,0,0,153.53,492Zm11.37,15.33a23.9,23.9,0,0,0-1.69-5l.61-.33.21-.08h0a24.06,24.06,0,0,1,1.77,5.25Z"/><rect class="cls-34" x="402.08" y="403.04" width="2.81" height="12.97" transform="translate(204.65 948.95) rotate(-115.19)"/><rect class="cls-35" x="402.08" y="403.04" width="2.81" height="12.97" transform="translate(942.91 608.36) rotate(154.81)"/><rect class="cls-36" x="344.77" y="430" width="2.81" height="12.97" transform="translate(98.56 935.52) rotate(-115.19)"/><rect class="cls-37" x="344.77" y="430" width="2.81" height="12.97" transform="translate(845.22 684.1) rotate(154.81)"/><rect class="cls-38" x="91.69" y="529.08" width="2.81" height="12.97" transform="translate(-351.91 847.77) rotate(-115.19)"/><rect class="cls-39" x="91.69" y="529.08" width="2.81" height="12.97" transform="translate(405.3 980.57) rotate(154.81)"/><path class="cls-40" d="M392.78,414.56a11.83,11.83,0,1,1,15.74,5.67A11.85,11.85,0,0,1,392.78,414.56Zm20.57-9.68a10.9,10.9,0,1,0-5.22,14.52A10.91,10.91,0,0,0,413.35,404.88Z"/><rect class="cls-41" x="218.96" y="301.35" width="2.81" height="12.97" transform="translate(405.12 -22.6) rotate(64.81)"/><rect class="cls-42" x="218.96" y="301.35" width="2.81" height="12.97" transform="translate(-110.07 123.08) rotate(-25.19)"/><rect class="cls-43" x="276.27" y="274.39" width="2.81" height="12.97" transform="translate(413.65 -89.94) rotate(64.81)"/><rect class="cls-44" x="276.27" y="274.39" width="2.81" height="12.97" transform="translate(-93.14 144.9) rotate(-25.19)"/><rect class="cls-45" x="306.98" y="339.68" width="2.81" height="12.97" transform="translate(490.37 -80.23) rotate(64.81)"/><rect class="cls-46" x="306.98" y="339.68" width="2.81" height="12.97" transform="translate(-118.01 164.19) rotate(-25.19)"/><path class="cls-47" d="M209.67,312.87a11.83,11.83,0,1,1,15.73,5.66A11.84,11.84,0,0,1,209.67,312.87Zm20.57-9.68A10.91,10.91,0,1,0,225,317.7,10.92,10.92,0,0,0,230.24,303.19Z"/><path class="cls-48" d="M45.92,470.67a11.83,11.83,0,1,1,15.73,5.67A11.84,11.84,0,0,1,45.92,470.67ZM66.49,461a10.91,10.91,0,1,0-5.23,14.51A10.92,10.92,0,0,0,66.49,461Z"/><rect class="cls-49" x="73.66" y="59.1" width="2.81" height="12.97" transform="translate(102.46 -30.26) rotate(64.81)"/><rect class="cls-50" x="73.66" y="59.1" width="2.81" height="12.97" transform="translate(-20.78 38.19) rotate(-25.19)"/><rect class="cls-51" x="146.72" y="138.12" width="2.81" height="12.97" transform="translate(215.92 -50.98) rotate(64.81)"/><rect class="cls-52" x="146.72" y="138.12" width="2.81" height="12.97" transform="translate(-47.46 76.8) rotate(-25.19)"/><path class="cls-53" d="M59.53,209.13a11.83,11.83,0,1,1,15.74,5.67A11.85,11.85,0,0,1,59.53,209.13Zm20.57-9.68A10.9,10.9,0,1,0,74.88,214,10.92,10.92,0,0,0,80.1,199.45Z"/><rect class="cls-54" x="682.81" y="88.16" width="2.81" height="12.97" transform="translate(1343.65 -110.95) rotate(154.81)"/><rect class="cls-55" x="682.81" y="88.16" width="2.81" height="12.97" transform="translate(478.63 -564.78) rotate(64.81)"/><rect class="cls-56" x="764.81" y="15.46" width="2.81" height="12.97" transform="translate(1468.89 -284.34) rotate(154.81)"/><rect class="cls-57" x="764.81" y="15.46" width="2.81" height="12.97" transform="translate(459.93 -680.74) rotate(64.81)"/><path class="cls-58" d="M673.52,99.68a11.83,11.83,0,1,1,15.73,5.67A11.84,11.84,0,0,1,673.52,99.68ZM694.09,90a10.91,10.91,0,1,0-5.23,14.51A10.92,10.92,0,0,0,694.09,90Z"/><rect class="cls-59" x="653.85" y="237.79" width="2.81" height="12.97" transform="translate(1352.17 186.4) rotate(154.81)"/><rect class="cls-60" x="653.85" y="237.79" width="2.81" height="12.97" transform="translate(597.39 -452.64) rotate(64.81)"/><path class="cls-61" d="M644.56,249.3A11.82,11.82,0,1,1,660.29,255,11.83,11.83,0,0,1,644.56,249.3Zm20.57-9.67a10.91,10.91,0,1,0-5.23,14.51A10.91,10.91,0,0,0,665.13,239.63Z"/><rect class="cls-62" x="682.81" y="328.93" width="2.81" height="12.97" transform="translate(1446.13 347.69) rotate(154.81)"/><rect class="cls-63" x="682.81" y="328.93" width="2.81" height="12.97" transform="translate(696.5 -426.5) rotate(64.81)"/><path class="cls-64" d="M673.52,340.44a11.82,11.82,0,1,1,15.73,5.67A11.83,11.83,0,0,1,673.52,340.44Zm20.57-9.67a10.91,10.91,0,1,0-5.23,14.51A10.92,10.92,0,0,0,694.09,330.77Z"/><path class="cls-65" d="M663.61,347.19l.8-.46A22.47,22.47,0,0,0,667.6,351l-.67.63A23.53,23.53,0,0,1,663.61,347.19Zm-2.94-8.78a24.22,24.22,0,0,1,0-5.58l.92.1a22.87,22.87,0,0,0,0,5.36ZM674.46,357l.38-.84a22.85,22.85,0,0,0,5.11,1.62l-.17.9A23.68,23.68,0,0,1,674.46,357Zm-11.05-33a23.46,23.46,0,0,1,3.23-4.55l.68.62a23.12,23.12,0,0,0-3.11,4.37ZM689,358.65l-.18-.9a22.65,22.65,0,0,0,5.08-1.7l.09,0,.39.83-.09,0A23.18,23.18,0,0,1,689,358.65Zm-15-44.69,0,0a23.94,23.94,0,0,1,5.24-1.76l.19.9a22.64,22.64,0,0,0-5,1.69Zm27.08,36.74a22.45,22.45,0,0,0,3.1-4.37l.81.44a23.89,23.89,0,0,1-3.23,4.55ZM688.44,313l.17-.9a23.65,23.65,0,0,1,5.32,1.67l-.37.84A22.56,22.56,0,0,0,688.44,313Zm18.46,24.85a22.35,22.35,0,0,0,0-5.36l.91-.12a23.67,23.67,0,0,1,.06,5.58Zm-6.09-18.09.67-.64a24.3,24.3,0,0,1,3.32,4.48l-.8.46A22.1,22.1,0,0,0,700.81,319.75Z"/><rect class="cls-66" x="706.36" y="378.39" width="2.81" height="12.97" transform="translate(1512.03 431.89) rotate(154.81)"/><rect class="cls-67" x="706.36" y="378.39" width="2.81" height="12.97" transform="translate(754.78 -419.39) rotate(64.81)"/><rect class="cls-68" x="333.41" y="130.71" width="2.81" height="12.97" transform="translate(353.18 498.56) rotate(-115.19)"/><rect class="cls-69" x="333.41" y="130.71" width="2.81" height="12.97" transform="translate(696.18 118.83) rotate(154.81)"/><rect class="cls-70" x="303.72" y="172.43" width="2.81" height="12.97" transform="translate(273.1 531.17) rotate(-115.19)"/><rect class="cls-71" x="303.72" y="172.43" width="2.81" height="12.97" transform="translate(657.38 210.93) rotate(154.81)"/><rect class="cls-72" x="273.28" y="186.74" width="2.81" height="12.97" transform="translate(216.76 524.03) rotate(-115.19)"/><rect class="cls-73" x="273.28" y="186.74" width="2.81" height="12.97" transform="translate(605.5 251.16) rotate(154.81)"/><path class="cls-74" d="M324.11,142.23a11.83,11.83,0,1,1,15.74,5.67A11.84,11.84,0,0,1,324.11,142.23Zm20.57-9.68a10.91,10.91,0,1,0-5.23,14.51A10.92,10.92,0,0,0,344.68,132.55Z"/><path class="cls-75" d="M313.38,147.38l0-.09a23.77,23.77,0,0,1-1.77-5.28l.9-.19a22.32,22.32,0,0,0,1.7,5.08l0,.09Zm5.52,7.43.62-.68a22.71,22.71,0,0,0,4.37,3.09l-.44.81A23.41,23.41,0,0,1,318.9,154.81Zm-7.4-22.06a23.6,23.6,0,0,1,1.68-5.31l.84.38a22.85,22.85,0,0,0-1.62,5.11Zm20.78,28,.1-.91a22.87,22.87,0,0,0,5.36-.06l.12.91A23.66,23.66,0,0,1,332.28,160.79ZM318.55,119.9a23.24,23.24,0,0,1,4.49-3.31l.45.8a22.85,22.85,0,0,0-4.31,3.18ZM346.17,157a23,23,0,0,0,4.31-3.2l.63.67a23.12,23.12,0,0,1-4.48,3.32Zm-14.24-42.42-.12-.91a23.67,23.67,0,0,1,5.58-.05l-.1.91A22.88,22.88,0,0,0,331.93,114.56Zm23.7,32a23.13,23.13,0,0,0,1.6-5.11l.9.17a24,24,0,0,1-1.66,5.32Zm-9.86-29.34.45-.81a24.14,24.14,0,0,1,4.54,3.23l-.62.68A22.45,22.45,0,0,0,345.77,117.19Zm11.37,15.33a22.82,22.82,0,0,0-1.69-5l.57-.3.26-.1h0a23.17,23.17,0,0,1,1.76,5.25Z"/><rect class="cls-76" x="340.9" y="52.54" width="2.81" height="12.97" transform="translate(434.6 393.9) rotate(-115.19)"/><rect class="cls-77" x="340.9" y="52.54" width="2.81" height="12.97" transform="translate(677.19 -33.27) rotate(154.81)"/><rect class="cls-78" x="283.6" y="79.5" width="2.81" height="12.97" transform="translate(328.51 380.48) rotate(-115.19)"/><rect class="cls-79" x="283.6" y="79.5" width="2.81" height="12.97" transform="translate(579.5 42.47) rotate(154.81)"/><path class="cls-80" d="M331.61,64.06a11.83,11.83,0,1,1,15.73,5.67A11.84,11.84,0,0,1,331.61,64.06Zm20.57-9.68A10.91,10.91,0,1,0,347,68.89,10.92,10.92,0,0,0,352.18,54.38Z"/><rect class="cls-81" x="653.86" y="462.95" width="2.81" height="12.97" transform="translate(1448.02 615.3) rotate(154.81)"/><rect class="cls-82" x="653.86" y="462.95" width="2.81" height="12.97" transform="translate(801.14 -323.33) rotate(64.81)"/><rect class="cls-83" x="740.28" y="473.95" width="2.81" height="12.97" transform="translate(1617.33 599.49) rotate(154.81)"/><rect class="cls-84" x="740.28" y="473.95" width="2.81" height="12.97" transform="translate(860.74 -395.2) rotate(64.81)"/><rect class="cls-85" x="754.6" y="504.39" width="2.81" height="12.97" transform="translate(1657.55 651.37) rotate(154.81)"/><rect class="cls-86" x="754.6" y="504.39" width="2.81" height="12.97" transform="translate(896.5 -390.68) rotate(64.81)"/><path class="cls-87" d="M644.57,474.46a11.83,11.83,0,1,1,15.73,5.67A11.83,11.83,0,0,1,644.57,474.46Zm20.57-9.67a10.91,10.91,0,1,0-5.23,14.51A10.91,10.91,0,0,0,665.14,464.79Z"/><path class="cls-88" d="M634.66,481.2l.8-.45a22.47,22.47,0,0,0,3.19,4.31l-.68.63A23.66,23.66,0,0,1,634.66,481.2Zm-2.94-8.77a24.22,24.22,0,0,1-.05-5.58l.92.1a22.88,22.88,0,0,0,0,5.36Zm13.79,18.63.38-.84a22.85,22.85,0,0,0,5.11,1.62l-.17.9A23.68,23.68,0,0,1,645.51,491.06Zm-11-33a23.69,23.69,0,0,1,3.23-4.54l.68.62a22.5,22.5,0,0,0-3.11,4.37Zm25.62,34.65-.18-.9a22.65,22.65,0,0,0,5.08-1.7l.08,0,.4.83-.09,0A23.35,23.35,0,0,1,660.08,492.67Zm-15-44.69,0,0a23.42,23.42,0,0,1,5.24-1.76l.19.9a22.64,22.64,0,0,0-5,1.69Zm27.08,36.74a22.45,22.45,0,0,0,3.1-4.37l.8.44a23.41,23.41,0,0,1-3.22,4.55ZM659.49,447l.17-.9a23.16,23.16,0,0,1,5.32,1.67l-.37.84A22.56,22.56,0,0,0,659.49,447ZM678,471.86a22.35,22.35,0,0,0-.05-5.36l.91-.12a23.67,23.67,0,0,1,.06,5.58Zm-6.09-18.1.67-.63a24,24,0,0,1,3.32,4.48l-.8.46A22.9,22.9,0,0,0,671.86,453.76Z"/><rect class="cls-89" x="572.36" y="457.01" width="2.81" height="12.97" transform="translate(1290.25 638.69) rotate(154.81)"/><rect class="cls-90" x="572.36" y="457.01" width="2.81" height="12.97" transform="translate(748.96 -252.98) rotate(64.81)"/><rect class="cls-91" x="599.32" y="514.32" width="2.81" height="12.97" transform="translate(1365.99 736.38) rotate(154.81)"/><rect class="cls-92" x="599.32" y="514.32" width="2.81" height="12.97" transform="translate(816.3 -244.46) rotate(64.81)"/><path class="cls-93" d="M563.07,468.53a11.83,11.83,0,1,1,15.73,5.67A11.84,11.84,0,0,1,563.07,468.53Zm20.57-9.68a10.91,10.91,0,1,0-5.23,14.52A10.92,10.92,0,0,0,583.64,458.85Z"/><rect class="cls-94" x="527.26" y="525.83" width="2.81" height="12.97" transform="translate(272 1237.27) rotate(-115.19)"/><rect class="cls-95" x="527.26" y="525.83" width="2.81" height="12.97" transform="matrix(-0.9, 0.43, -0.43, -0.9, 1233.62, 788.98)"/><path class="cls-96" d="M518,537.35A11.83,11.83,0,1,1,533.7,543,11.84,11.84,0,0,1,518,537.35Zm20.57-9.68a10.91,10.91,0,1,0-5.23,14.51A10.92,10.92,0,0,0,538.53,527.67Z"/><rect class="cls-97" x="533.61" y="208.06" width="2.81" height="12.97" transform="translate(568.61 789.99) rotate(-115.19)"/><rect class="cls-98" x="533.61" y="208.06" width="2.81" height="12.97" transform="translate(1110.47 180.95) rotate(154.81)"/><rect class="cls-99" x="543.8" y="268.53" width="2.81" height="12.97" transform="translate(528.41 885.43) rotate(-115.19)"/><rect class="cls-100" x="543.8" y="268.53" width="2.81" height="12.97" transform="translate(1155.62 291.81) rotate(154.81)"/><path class="cls-101" d="M534.51,280.05a11.83,11.83,0,1,1,15.73,5.67A11.84,11.84,0,0,1,534.51,280.05Zm20.57-9.68a10.91,10.91,0,1,0-5.23,14.51A10.92,10.92,0,0,0,555.08,270.37Z"/></svg>