<svg id="Logo" xmlns="http://www.w3.org/2000/svg" viewBox="0 0 850.39 425.39"><defs><style>.cls-1{fill:#fff;}</style></defs><title>Artboard 1 copy 12</title><rect class="cls-1" x="305.13" y="350.24" width="41.38" height="8.59"/><path class="cls-1" d="M237.89,337.27c-4.66,4.08-9.69,4.66-15.73,4.66h-6v16.9H203v-53.9h17.63c5.53,0,12.16.22,16.6,3.94a18.34,18.34,0,0,1,6.34,14.27C243.57,328.09,241.67,333.92,237.89,337.27ZM221.28,317h-5.1v12.82h5.61c4.52,0,8.59-1,8.59-6.48C230.38,317.75,225.8,317,221.28,317Z"/><path class="cls-1" d="M280.16,358.83l-12.45-17.41h-.15v17.41H254.38v-53.9h17c5.68,0,11.95.15,16.61,3.86a18.69,18.69,0,0,1,6.63,14.71c0,8.31-4.88,15.59-13.41,17l14.64,18.36ZM272.59,317h-5v15h4.88c5.17,0,9-2.19,9-7.72C281.47,319,277.32,317,272.59,317Z"/><path class="cls-1" d="M423,359.85c-10.85,0-19.44-5.61-19.44-17.12V341h13.69c0,3.5,1.6,7.36,5.61,7.36a5.2,5.2,0,0,0,5.24-5.17c0-3.5-2.91-4.66-5.75-5.9-1.6-.73-3.21-1.38-4.81-2-7-2.91-13.18-7-13.18-15.44,0-10.05,9.69-15.88,18.86-15.88,5.25,0,11.15,2,14.57,6.12,2.77,3.42,3.42,6.41,3.57,10.63H427.73c-.44-3-1.46-5.24-5-5.24-2.41,0-4.74,1.68-4.74,4.22a3.94,3.94,0,0,0,.51,2.26c1.31,2.19,8.38,5,10.63,6,7.14,3.27,12.6,7,12.6,15.43C441.78,354.6,433.63,359.85,423,359.85Z"/><path class="cls-1" d="M450.94,358.83v-53.9h29.93V317H464.12v8.38h16.24v12.09H464.12v9.25h16.75v12.09Z"/><path class="cls-1" d="M519.08,358.83l-12.46-17.41h-.14v17.41H493.29v-53.9h17c5.68,0,11.94.15,16.6,3.86a18.69,18.69,0,0,1,6.63,14.71c0,8.31-4.88,15.59-13.4,17l14.64,18.36ZM511.5,317h-5v15h4.88c5.17,0,9-2.19,9-7.72C520.39,319,516.24,317,511.5,317Z"/><path class="cls-1" d="M544.07,358.83v-53.9h13.77v53.9Z"/><path class="cls-1" d="M570.15,358.83v-53.9h29.93V317H583.33v8.38h16.24v12.09H583.33v9.25h16.75v12.09Z"/><path class="cls-1" d="M628.6,359.85c-10.85,0-19.44-5.61-19.44-17.12V341h13.69c0,3.5,1.6,7.36,5.61,7.36a5.2,5.2,0,0,0,5.24-5.17c0-3.5-2.91-4.66-5.75-5.9-1.6-.73-3.21-1.38-4.81-2-7-2.91-13.18-7-13.18-15.44,0-10.05,9.69-15.88,18.86-15.88,5.25,0,11.14,2,14.57,6.12,2.77,3.42,3.42,6.41,3.57,10.63H633.34c-.44-3-1.46-5.24-5-5.24-2.4,0-4.73,1.68-4.73,4.22a3.94,3.94,0,0,0,.51,2.26c1.31,2.19,8.38,5,10.63,6,7.14,3.27,12.6,7,12.6,15.43C647.39,354.6,639.24,359.85,628.6,359.85Z"/><path class="cls-1" d="M325.82,303.91a20.7,20.7,0,1,0,20.7,20.7A20.7,20.7,0,0,0,325.82,303.91Zm0,29.16a8.46,8.46,0,1,1,8.46-8.46A8.46,8.46,0,0,1,325.82,333.07Z"/><path class="cls-1" d="M90,141.72H74.75v-7.47l-38.24-3.51v108H86.16c20.29,0,35.08.22,51.14-13.52,9.71-8.24,14.36-21.55,14.36-34,0-17.74-8.66-30.42-25.78-36.34a35.13,35.13,0,0,0,14.18-14.58l-36.45-3.35C100.84,140.58,95.74,141.72,90,141.72Zm4.64,61.91H74.75V175.11H94.83c9.29,0,18.59,2.32,18.59,13.52C113.42,200.25,104.55,203.63,94.61,203.63Z"/><path class="cls-1" d="M137.16,94c-13.52-15-31.27-15.21-50.08-15.21H38.91v48.39l38.24,3.51V113.82H92.58c8.24,0,15.63,1.91,15.63,11.84a12.28,12.28,0,0,1-2.2,7.63l36.45,3.35a36.71,36.71,0,0,0,4-16.9C146.46,110,143.71,101.15,137.16,94Z"/><polygon class="cls-1" points="207.03 78.75 207.03 142.55 246.96 146.22 246.96 78.75 207.03 78.75"/><polygon class="cls-1" points="204.63 238.7 290.83 238.7 290.83 203.63 244.56 203.63 244.56 149.81 204.63 146.15 204.63 238.7"/><path class="cls-1" d="M615.71,193.28a15.1,15.1,0,0,1-15.21,15c-11.62,0-16.27-11.2-16.27-21.34H544.51V192c0,33.38,24.93,49.65,56.41,49.65,30.85,0,54.52-15.21,54.52-48a50.13,50.13,0,0,0-.38-6.26l-43.27-4A13.17,13.17,0,0,1,615.71,193.28Z"/><path class="cls-1" d="M621.28,145.31c-6.55-3-27-11-30.84-17.33a11.54,11.54,0,0,1-1.48-6.55c0-7.4,6.76-12.25,13.73-12.25,10.14,0,13.1,6.55,14.37,15.21h39.51c-.42-12.26-2.32-20.92-10.35-30.85-9.93-12-27.05-17.75-42.26-17.75-26.62,0-54.73,16.9-54.73,46.06,0,24.51,18,36.34,38.25,44.8,4.65,1.9,9.29,3.8,13.94,5.91s9.53,4.07,12.77,7.32l43.27,4C655,163.67,640.14,154,621.28,145.31Z"/><polygon class="cls-1" points="740.42 238.7 780.35 238.7 780.35 198.93 740.42 195.27 740.42 238.7"/><polygon class="cls-1" points="813.39 113.82 813.39 78.75 711.97 78.75 711.97 113.82 742.82 113.82 742.82 191.67 782.75 195.33 782.75 113.82 813.39 113.82"/><polygon class="cls-1" points="447.8 204.7 399.36 204.7 417.93 165.71 381.84 162.4 345.51 238.7 501.64 238.7 469.12 170.4 429.75 166.79 447.8 204.7"/><polygon class="cls-1" points="417.07 60.94 384.01 130.38 432.18 92.68 417.07 60.94"/><polygon class="cls-1" points="467.18 166.26 444.81 119.26 423.89 154.42 427.81 162.65 467.18 166.26"/><polygon class="cls-1" points="434.38 97.48 386.21 135.18 377.54 153.4 413.62 156.71 419.27 144.83 421.52 149.56 442.44 114.4 434.38 97.48"/></svg>